<svg version="1.1" xmlns="http://www.w3.org/2000/svg" xmlns:xlink="http://www.w3.org/1999/xlink" width="148.61867" height="140.94594" viewBox="0,0,148.61867,140.94594"><g transform="translate(-165.69067,-109.52704)"><g data-paper-data="{&quot;isPaintingLayer&quot;:true}" fill-rule="nonzero" stroke="none" stroke-linecap="butt" stroke-linejoin="miter" stroke-miterlimit="10" stroke-dasharray="" stroke-dashoffset="0" style="mix-blend-mode: normal"><path d="M178.28931,143.39807c0.00915,-0.6795 -0.08701,-1.33591 -0.27336,-1.95366l0.97075,-1.57348c2.49548,-3.25172 4.41889,-6.81451 6.57265,-10.27646c0,0 0.46105,-0.74549 0.1543,-1.47753c0.98086,-1.27664 2.25294,-1.90457 3.36712,-3.3069c0,0 0.60493,-0.78436 0.25262,-1.5981c0.98556,-0.52958 2.03624,-0.89766 3.11939,-1.01251c0,0 3.94482,-0.73393 5.03645,-4.15439c2.36101,-1.02678 4.56518,-2.20798 7.00742,-3.14699c0,0 0.81382,-0.3129 1.01528,-1.0769c2.45087,-0.47334 4.90131,-0.62871 8.21796,-1.21543c5.66447,-1.00208 9.38687,-2.4401 15.22589,-2.32618c0,0 0.67571,0.00909 1.59287,-0.19719c-0.00665,0.03594 -0.01055,0.07501 -0.01111,0.11747c-0.00723,0.53803 0.53078,0.54526 0.53078,0.54526c2.51078,0.03377 5.96294,0.08022 8.47373,0.11399c0,0 0.53803,0.00723 0.54526,-0.53078c0.00198,-0.14655 -0.03652,-0.25375 -0.09358,-0.33212c0.82343,-0.04957 1.64702,-0.11984 2.44994,-0.20604c1.50311,0.6911 2.92993,0.7103 2.92993,0.7103l5.82572,0.07837c5.49272,0.07389 10.83821,0.128 16.29483,0.6698c1.1326,0.96309 2.29424,1.36774 2.29424,1.36774l1.76736,0.61252c6.83807,2.1393 13.49828,3.28301 20.0352,6.05136c0.77227,0.60669 1.53653,1.35507 2.73992,2.29881l1.40539,1.08388c0,0 0.11777,0.09083 0.30939,0.18159c0.68017,1.48909 1.91039,2.67681 3.43415,3.29971c1.53434,2.05252 3.44248,5.46966 5.31993,9.15347l0.67946,2.90233c0,0 0.60973,2.58635 2.70609,4.04955c0.026,0.05547 0.05191,0.11089 0.07776,0.16616c-0.25823,0.68346 -0.40398,1.42278 -0.41438,2.19556c-0.02297,1.70676 0.6184,3.26771 1.68441,4.43669c-0.10759,0.45323 -0.16745,0.92519 -0.17397,1.41038c-0.02372,1.76282 0.66127,3.3701 1.79086,4.55059c-0.17889,0.57777 -0.27896,1.19061 -0.2875,1.8261c-0.02273,1.68914 0.60527,3.23553 1.65165,4.40044c0.09976,2.90629 0.67313,5.62733 1.16108,8.40632c-0.09124,0.25929 -0.16644,0.52621 -0.22436,0.79962c-0.00564,-0.22504 -0.00736,-0.45231 -0.00428,-0.68215c0,0 0.00723,-0.53803 -0.53078,-0.54526c-0.53803,-0.00723 -0.54526,0.53078 -0.54526,0.53078c-0.02615,1.94441 0.34618,3.81605 0.42792,5.64288c-0.58138,2.59047 -0.88825,5.6423 -0.82379,8.4116c-1.20214,3.08623 -3.86531,5.88243 -5.13896,8.88192l-0.07912,-0.06965c0,0 -1.45293,0.70221 -0.75128,2.15514c-0.64462,0.18686 -1.18155,0.29712 -1.38275,0.29131c0,0 -0.53803,-0.00723 -0.54526,0.53078c-0.00723,0.53803 0.53078,0.54526 0.53078,0.54526c0.09825,0.00013 0.21797,-0.00833 0.35511,-0.02501c0.09634,0.03108 0.17449,0.03213 0.17449,0.03213c1.40737,0.01894 2.72072,0.2781 3.83516,0.80625c0.38653,0.74119 0.9129,1.39848 1.54451,1.93647c0.18981,0.51592 0.41167,1.01648 0.66319,1.49931c0.08527,0.1637 0.17395,0.32538 0.26598,0.48489l0.06963,2.19823c0.10927,0.34317 0.21857,0.68631 0.32784,1.02947c-0.70005,1.90515 -1.24814,4.39334 -1.87394,6.49885c-0.71129,0.69739 -1.41012,1.39798 -1.99673,2.12458c-1.43167,0.37119 -2.67268,1.22199 -3.53851,2.37274c-0.39762,0.14405 -0.645,0.4469 -0.79278,0.71273c-0.12983,-0.04184 -0.25679,-0.08405 -0.38059,-0.1266c0,0 -0.51046,-0.17016 -0.68062,0.3403c-0.17016,0.51046 0.3403,0.68062 0.3403,0.68062c0.13521,0.04395 0.27343,0.08764 0.41445,0.13103c-1.20423,5.81629 -2.37033,12.36001 -7.66318,16.13508l-0.46688,0.69868c-3.30537,2.15131 -7.12897,3.3369 -11.93648,5.59415c-3.46914,1.62886 -5.91824,3.84691 -8.68128,5.77423c-0.11373,0.0251 -0.2269,0.05097 -0.33953,0.07759c-1.20372,0.05489 -2.41833,0.08405 -3.65691,0.08405c0,0 -0.53808,0 -0.53808,0.53808c0,0.49023 0.44665,0.53382 0.52607,0.53769c-2.06483,0.80178 -4.05917,1.79143 -6.22503,2.78594c-0.68019,-0.84363 -1.79801,-0.41384 -1.79801,-0.41384c-2.65405,1.02043 -5.34363,1.59129 -8.0563,1.83131c-2.87705,-0.11388 -5.75112,-0.37719 -8.65322,-0.62064c-1.62671,-0.13646 -3.24339,-0.25021 -4.85236,-0.34956c-0.90991,-0.17395 -1.8201,-0.36275 -2.73011,-0.56205l-1.32536,-0.04175c-3.72214,-0.69635 -9.68972,-0.5138 -12.40773,-0.48728c-1.67264,-0.83632 -5.9844,-1.18915 -8.86078,-1.29655c-3.16487,-0.69428 -6.21309,-1.59999 -9.01015,-2.7753c0,0 -1.11741,-0.46449 -1.81945,0.37833c-1.73516,-0.97929 -3.47452,-1.98722 -5.46331,-2.57275c-0.26479,-0.46255 -0.72065,-0.69818 -0.72065,-0.69818l-0.46051,-0.20875c-0.69868,-0.53885 -1.42727,-1.10028 -2.17821,-1.66554c-0.27971,-1.28077 -1.41376,-2.05902 -1.41376,-2.05902l-1.35085,-0.91232c-1.75726,-1.43088 -3.5178,-2.36713 -5.09122,-3.62394c-0.52893,-1.67464 -1.20451,-3.19724 -2.64285,-4.04503c-0.49512,-0.29183 -0.99021,-0.58366 -1.48535,-0.87549c0.00249,-0.06051 0.00415,-0.1212 0.00497,-0.18211c0.01832,-1.36219 -0.38653,-2.63155 -1.09272,-3.68284c0.09939,-0.20578 0.15643,-0.43602 0.1597,-0.67957c0.01076,-0.79954 -0.56167,-1.47114 -1.323,-1.60973c0.21975,-0.18962 0.44661,-0.33804 0.68577,-0.42788c0,0 0.48128,-0.24062 0.24063,-0.7219c-0.24062,-0.48128 -0.7219,-0.24063 -0.7219,-0.24063c-0.50913,0.28789 -0.91173,0.68581 -1.27627,1.12961c-0.15548,-0.11859 -0.35179,-0.11859 -0.35179,-0.11859h-0.53392c-0.23183,0 -0.46273,-0.00173 -0.69283,-0.00489c-0.46934,-0.1156 -0.95911,-0.17995 -1.46316,-0.18673c-0.41804,-0.00562 -0.82734,0.02861 -1.22427,0.09918c-0.84467,-0.03825 -1.68772,-0.08146 -2.53788,-0.11532c-0.23445,-0.30107 -0.57341,-0.51718 -0.96328,-0.59324c-0.28182,-0.44673 -0.777,-0.74635 -1.3445,-0.75397c-0.25471,-0.00343 -0.49643,0.05232 -0.71207,0.15451c-0.21279,-0.10793 -0.45295,-0.17018 -0.70763,-0.1736c-0.42316,-0.00569 -0.81049,0.15197 -1.10193,0.41455c-0.32803,-0.23109 -0.66734,-0.44733 -1.01698,-0.64769c-0.1125,-0.21966 -0.27392,-0.41036 -0.47008,-0.55749c-0.11982,-0.16904 -0.27138,-0.31408 -0.44613,-0.42641c0.03506,-0.12875 0.05458,-0.26393 0.05645,-0.40351c0.0008,-0.05999 -0.00165,-0.11924 -0.00725,-0.17759c0.00714,-0.0582 0.01121,-0.11735 0.01203,-0.17733c0.00764,-0.56752 -0.27855,-1.07058 -0.71753,-1.3643c-0.06974,-0.41669 -0.29939,-0.78011 -0.62445,-1.02394c-0.01969,-0.02777 -0.04023,-0.05489 -0.0616,-0.08136c0.25311,-2.87831 0.20331,-5.78751 -0.11177,-8.46732c0.15428,-0.09459 0.2572,-0.26479 0.2572,-0.45904c0,-0.01903 -0.00099,-0.03782 -0.00291,-0.05633c0.22048,-0.42792 0.42826,-0.86591 0.61874,-1.31843c0.87018,-0.2578 1.66451,-0.69429 2.33979,-1.26747c1.76841,0.02247 3.38006,-0.66829 4.56085,-1.8055c0.08249,0.04124 0.16499,0.0825 0.24749,0.12374c0,0 0.48127,0.24062 0.7219,-0.24063c0.0249,-0.0498 0.04206,-0.097 0.05284,-0.14166c0.22373,0.23972 0.48029,0.46513 0.827,0.64924c0,0 0.3906,0.1953 0.64397,-0.11788c0.00568,0.0057 0.01137,0.01139 0.01707,0.01709c0,0 0.38049,0.38048 0.76095,0c0.38048,-0.38049 0,-0.76095 0,-0.76095c-0.04132,-0.04132 -0.08241,-0.08278 -0.12328,-0.12436c0.02618,-0.03042 0.05218,-0.06231 0.07796,-0.09576c0.98582,-1.27823 -0.29241,-2.26405 -0.29241,-2.26405c-0.33201,-0.25068 -0.67524,-0.49281 -1.02824,-0.72425c0.0436,-0.28892 0.06807,-0.58422 0.07212,-0.88457c0.02699,-2.00681 -0.8645,-3.81209 -2.2848,-5.01557c0.02981,-1.93526 0.6131,-5.059 -0.74655,-6.53253c0.1173,-3.94616 0.24056,-7.58841 -0.13607,-11.09169c0.01787,-1.47659 -0.14805,-2.95489 -0.56476,-4.42881c1.26153,-6.76511 3.07964,-13.3764 4.2766,-20.25689c0.12686,-0.72935 0.2244,-1.48813 0.31077,-2.26431c1.20723,-1.15527 1.96802,-2.77556 1.99228,-4.57835z" data-paper-data="{&quot;index&quot;:null}" fill="#ffffff" stroke-width="0"/><path d="M232.17165,109.52706c0.2159,0.06074 0.44267,0.11588 0.67914,0.16573c-0.34002,-0.00458 -0.68002,-0.00915 -1.02004,-0.01373c0.11317,-0.0469 0.22698,-0.0975 0.34088,-0.15202z" data-paper-data="{&quot;index&quot;:null}" fill="#ffffff" stroke-width="0"/><path d="M314.30934,162.63606c-0.20804,0.34568 -0.38466,0.71261 -0.52587,1.09677c-0.05787,-0.49705 -0.10604,-0.99742 -0.14147,-1.50239c0.21338,0.14808 0.43619,0.28365 0.6673,0.40562z" data-paper-data="{&quot;index&quot;:null}" fill="#ffffff" stroke-width="0"/><path d="M308.45592,195.61033c-0.09612,-0.03291 -0.19314,-0.06435 -0.29101,-0.09429l0.23271,-0.14659c0.01795,0.08088 0.03739,0.16116 0.05833,0.24086z" data-paper-data="{&quot;index&quot;:null}" fill="#ffffff" stroke-width="0"/><path d="M179.62531,203.40881c-1.53812,0.48982 -2.02792,-1.0483 -2.02792,-1.0483l-0.54623,-1.72367c0.07712,-0.55889 -0.21744,-1.00532 -0.43601,-1.25163c-0.45926,-0.96014 -0.87227,-1.91425 -1.24343,-2.86516c-0.12529,-0.84092 -0.41301,-1.62976 -0.83062,-2.33296c-0.51219,-1.5884 -0.91686,-3.17402 -1.2348,-4.76997c0.00549,-1.00698 -0.09039,-1.99482 -0.46567,-2.7611c-0.14982,-1.07273 -0.2665,-2.15333 -0.35616,-3.24567c0.07339,-2.96305 0.08215,-5.76533 -0.21011,-8.48392c0.00549,-0.4539 -0.00639,-0.90801 -0.03758,-1.36206c0.00048,-0.0373 0.00099,-0.07465 0.00149,-0.11201c0.03228,-2.40026 0.14384,-4.84444 0.34992,-7.29836c1.13557,-5.27498 2.45825,-10.51118 3.39805,-15.91335c0.12686,-0.72935 0.2244,-1.48813 0.31077,-2.26431c1.20723,-1.15527 1.96802,-2.77556 1.99228,-4.57835c0.00358,-0.26523 -0.00891,-0.52695 -0.03652,-0.78421c0.51136,-1.31367 1.0582,-2.72085 1.67281,-4.01593c0.93102,-1.3111 1.78921,-2.66227 2.62376,-4.02831c1.97469,-2.34332 4.56629,-5.10461 4.60256,-7.79927c0.19919,-0.2054 0.40136,-0.40926 0.60643,-0.61158c0.30744,-0.26768 0.6158,-0.55126 0.91697,-0.87667c1.15757,-1.07294 2.39624,-2.09886 3.70228,-3.07426c0.02505,-0.00292 0.05012,-0.00572 0.07522,-0.00839c0,0 3.09165,-0.57518 4.55836,-3.08033c4.21403,-2.50928 8.87327,-4.5519 13.6342,-6.03933c0.95222,-0.12821 1.96942,-0.27672 3.08455,-0.474c5.33368,-0.94357 8.94552,-2.27365 14.2238,-2.33066c0.18966,0.00018 0.37876,0.00151 0.56724,0.00405c0,0 1.61408,0.02172 1.59236,1.63579c-0.02172,1.61408 -1.63579,1.59236 -1.63579,1.59236c-13.24257,-0.17814 -28.28996,5.79292 -38.35978,14.53851c-0.04384,3.25988 -3.93938,7.10737 -5.97726,9.68757c-1.57497,1.9941 -2.70456,5.70953 -3.70415,8.12168c-3.50977,8.46952 -4.84536,18.38605 -4.96985,27.64085c-0.12369,9.19533 0.28735,16.66874 4.26263,24.9325l0.94452,2.95255c0,0 0.48982,1.53814 -1.0483,2.02794z" data-paper-data="{&quot;index&quot;:null}" fill="#000000" stroke-width="0.5"/><path d="M212.40822,185.04901l-1.88802,-0.0254c-5.33362,-0.07176 -9.99372,0.1693 -14.82182,1.24461c0.5707,1.55035 1.23979,3.12516 2.02243,4.74451l0.91862,1.90072c0,0 0.70242,1.45339 -0.75096,2.15581c-1.45339,0.70242 -2.15581,-0.75096 -2.15581,-0.75096l-0.9186,-1.90072c-0.87883,-1.81842 -1.62374,-3.58961 -2.25333,-5.3373c-0.46052,0.13588 -0.92409,0.27997 -1.39135,0.4327c0,0 -1.53814,0.48982 -2.02794,-1.0483c-0.48982,-1.53812 1.0483,-2.02792 1.0483,-2.02792c0.46236,-0.14396 0.92177,-0.28098 1.37881,-0.41128c-1.91425,-6.60797 -2.30123,-13.07559 -2.19829,-20.72861c0,0 0.02172,-1.61408 1.63579,-1.59236c1.61408,0.02172 1.59236,1.63579 1.59236,1.63579c-0.09953,7.39832 0.23604,13.54722 2.09539,19.88876c5.17591,-1.16196 10.19617,-1.50992 15.86983,-1.4336l1.59516,0.02146c-2.22256,-5.27891 -3.05823,-11.26934 -2.97698,-17.30934c0,0 0.02172,-1.61408 1.63579,-1.59236c1.61408,0.02172 1.59236,1.63579 1.59236,1.63579c-0.09162,6.8108 1.04817,13.57828 4.22374,19.03595c1.49768,2.57398 1.05125,5.68698 3.9753,7.01174l0.22448,-0.16741c0,0 1.61408,0.02172 1.59236,1.63579c-0.02172,1.61408 -1.63579,1.59236 -1.63579,1.59236l-1.66356,-0.1928c-3.84676,-2.14509 -3.26504,-4.788 -5.26164,-8.21946c-0.11351,-0.19506 -0.22466,-0.3915 -0.33352,-0.58921c-0.47983,0.39972 -1.12309,0.39107 -1.12309,0.39107z" data-paper-data="{&quot;index&quot;:null}" fill="#000000" stroke-width="0.5"/><path d="M250.24537,194.52699c-1.15669,1.12598 -2.28264,-0.03071 -2.28264,-0.03071l-1.22804,-1.38027c-5.8565,-12.1178 -12.16736,-20.62539 -11.9757,-34.87368c0,0 0.02172,-1.61408 1.63579,-1.59236c1.61408,0.02172 1.59236,1.63579 1.59236,1.63579c-0.18443,13.7099 6.01213,21.75109 11.6543,33.42542l0.63461,0.53315c0,0 1.12598,1.15669 -0.03071,2.28264z" data-paper-data="{&quot;index&quot;:null}" fill="#000000" stroke-width="0.5"/><path d="M269.11247,181.09087c0,0 -1.61408,-0.02172 -1.59236,-1.63579c0.02172,-1.61408 1.63579,-1.59236 1.63579,-1.59236c0.31863,0.00428 0.63723,0.00857 0.95586,0.01285c-1.25451,-5.61914 -3.46256,-11.37183 -5.90759,-15.57398c0,0 -0.81181,-1.39522 0.58342,-2.20705c1.39522,-0.81181 2.20705,0.58342 2.20705,0.58342c2.69089,4.62472 5.10379,11.04789 6.40843,17.24193c5.5798,0.07505 11.15959,0.15012 16.73939,0.22517c-0.05762,-2.19483 -0.24672,-4.34207 -0.75761,-6.52257c-0.50857,-2.1707 0.24228,-5.8716 -1.89581,-6.50593c0,0 -1.43397,-0.74125 -0.6927,-2.17522c0.74125,-1.43397 2.17522,-0.6927 2.17522,-0.6927c5.65416,3.53208 4.46637,15.0717 4.38217,21.33072l-0.0381,2.83204c0,0 -0.02172,1.61408 -1.63579,1.59236c-1.61408,-0.02172 -1.59236,-1.63579 -1.59236,-1.63579l0.0381,-2.83204c0.00984,-0.73092 0.0217,-1.45075 0.02962,-2.16196c-5.21031,-0.0701 -10.82338,-0.1456 -16.17103,-0.21753c0.30537,2.07818 0.46274,4.0872 0.43851,5.945l-0.0127,0.94402c0,0 -0.02172,1.61408 -1.63579,1.59236c-1.61408,-0.02172 -1.59236,-1.63579 -1.59236,-1.63579l0.0127,-0.94402c0.02579,-1.85595 -0.14255,-3.86789 -0.46651,-5.94538c-0.54317,-0.0073 -1.08192,-0.01455 -1.61558,-0.02174z" data-paper-data="{&quot;index&quot;:null}" fill="#000000" stroke-width="0.5"/><path d="M307.79257,207.00726c1.31277,-4.90471 -0.78587,-9.50495 -6.1135,-6.76505c0,0 -0.47116,0.22769 -1.00659,0.15557c-0.25933,0.29897 -0.5509,0.56123 -0.89415,0.76303l0.89897,-0.48765c0,0 -0.02172,1.61408 -1.63579,1.59236c-1.61408,-0.02172 -1.59236,-1.63579 -1.59236,-1.63579l0.92437,-2.37569c1.71217,-0.45823 3.87616,-4.55438 5.03767,-6.7706c1.6594,-3.16619 4.7286,-6.44115 5.66825,-9.95183c1.26392,-4.72215 0.11416,-11.69532 0.18043,-16.62196c0.10267,-2.44826 -1.38061,-3.86082 -1.78178,-6.37466c-1.93266,-12.1109 -6.81446,-28.07083 -16.66597,-35.43497c-11.57223,-5.94933 -25.6582,-9.09943 -38.73424,-9.27534c0,0 -1.61408,-0.02172 -1.59236,-1.63579c0.02172,-1.61408 1.63579,-1.59236 1.63579,-1.59236c5.63744,0.07584 11.46746,0.69177 17.21946,1.83141c0.27592,0.12845 0.44774,0.18833 0.44774,0.18833l1.76736,0.61252c4.50823,1.41039 8.93914,2.38809 13.3084,3.68386c2.65353,1.03291 5.22721,2.18967 7.68849,3.46835c7.38271,5.90137 12.39394,15.55244 15.38927,25.42071c0.08469,0.49161 0.22507,0.96447 0.41449,1.41176c0.38515,1.35724 0.7326,2.71545 1.04326,4.06539c0.05167,0.45691 0.15111,0.89962 0.29329,1.32293c0.39445,1.84887 0.71982,3.6765 0.97846,5.45899c0.38668,2.66491 1.80083,4.12675 1.8165,6.89231c-0.01812,1.3477 0.04229,2.81544 0.11956,4.33828c-0.23286,0.14734 -0.23697,0.4534 -0.23697,0.4534c-0.02615,1.94441 0.34618,3.81603 0.42792,5.64286c-0.5362,2.38922 -0.83892,5.17094 -0.83214,7.76147c-0.59042,1.81644 -1.5243,3.56385 -2.61201,5.2398c-0.16938,0.25339 -0.33877,0.5065 -0.50626,0.75968c-1.4542,2.12853 -3.11537,4.13816 -4.57943,6.02366c-0.06001,0.04466 -0.1142,0.10671 -0.14948,0.193c-0.26773,0.34657 -0.52828,0.68889 -0.77909,1.02693c5.31459,-0.7592 8.57859,3.69373 7.96183,9.36823c-0.38081,1.29114 -0.72937,2.69773 -1.09535,4.01083c-0.71518,1.4658 -1.68223,2.39986 -2.82037,3.13065c-0.60766,0.2216 -1.17305,0.53203 -1.68024,0.91572c-1.02351,0.4906 -2.13265,0.9483 -3.28607,1.5415l-0.11035,0.00979c0.00484,0.02079 0.00964,0.04161 0.0144,0.06244c1.51156,6.61165 -3.08001,14.3285 -8.58712,19.11184c-2.9637,1.63747 -6.35581,2.78413 -10.46765,4.71474c-3.07506,1.44382 -5.34871,3.35061 -7.74992,5.10749c-1.43789,0.24978 -2.87513,0.44613 -4.25525,0.82554c-0.22349,0.00189 -0.44772,0.00286 -0.67272,0.00286c0,0 -0.42853,0 -0.52073,0.38242c-0.06029,0.02275 -0.12045,0.04604 -0.18043,0.06982c-0.01107,0.56519 -0.36562,0.95179 -0.63659,1.16549c-0.91259,0.38996 -1.82153,0.80948 -2.74827,1.24231c-1.07942,0.0217 -1.97047,0.24907 -2.82108,0.54559c-0.56823,-0.17295 -1.12781,0.04219 -1.12781,0.04219c-2.58625,0.99436 -5.20629,1.56184 -7.84856,1.81228c-0.13166,0.00435 -0.26398,0.00811 -0.39691,0.01132c-2.81387,-0.11769 -5.62559,-0.3748 -8.46409,-0.61291c-0.67869,-0.05693 -1.35563,-0.10992 -2.03102,-0.15955c-1.58474,-0.28036 -3.02329,-0.62965 -4.19636,-1.03829c-1.85545,-0.00994 -3.70972,-0.04509 -5.56053,-0.1108c-1.07762,-0.08314 -2.21184,-0.12909 -3.3255,-0.15238c-7.57657,-0.4282 -15.07114,-1.42562 -22.32368,-3.3626c-0.59291,-0.21864 -1.17644,-0.44809 -1.74945,-0.68887c0,0 -0.48291,-0.20075 -1.01324,-0.09886c-0.35005,-0.10628 -0.6995,-0.21492 -1.04828,-0.32594c-3.60691,-1.14801 -6.16929,-3.73264 -9.18877,-5.60676c-0.39004,-0.50919 -0.80561,-0.79437 -0.80561,-0.79437l-1.35085,-0.91232c-0.47297,-0.38511 -0.94615,-0.73439 -1.41587,-1.06373c-0.34899,-0.41161 -0.69327,-0.82848 -1.06179,-1.21097c-1.03058,-1.06965 -2.09113,-1.81317 -3.08521,-2.65988c-0.4768,-1.13569 -1.12049,-2.11509 -2.17118,-2.73435c-0.10811,-0.06373 -0.21622,-0.12746 -0.32433,-0.19117c-0.10619,-0.18774 -0.20959,-0.38446 -0.30995,-0.59117c-1.25636,-2.58758 -1.84631,-5.30041 -2.05037,-8.07272l-0.56797,0.3748c-0.15441,-0.00239 -0.27935,0.06009 -0.27935,0.06009c-0.35375,0.20004 -0.65608,0.45319 -0.92994,0.73794l-0.29706,0.19603c-0.6546,-0.00881 -1.35386,-0.01128 -2.07882,-0.02187c-0.32934,-0.05646 -0.66736,-0.08801 -1.01199,-0.09266c-0.28083,-0.00379 -0.55772,0.01042 -0.82956,0.04156c-1.05151,-0.04718 -2.12262,-0.13329 -3.16218,-0.29734c-0.20617,-0.17522 -0.45712,-0.29962 -0.73363,-0.35358c-0.28182,-0.44673 -0.777,-0.74635 -1.3445,-0.75397c-0.25471,-0.00343 -0.49643,0.05232 -0.71207,0.15451c-0.21279,-0.10793 -0.45295,-0.17018 -0.70763,-0.1736c-0.08882,-0.0012 -0.17608,0.0048 -0.26118,0.01748c-0.50249,-0.24775 -0.97271,-0.53801 -1.4008,-0.87827c-1.24164,-0.98685 -2.14866,-2.93576 -2.60811,-5.13892c0.1003,-1.98771 0.0596,-3.96783 -0.10968,-5.8549c0.22128,-1.15677 0.60649,-2.20511 1.17425,-3.02854c0.71001,-0.2637 1.36157,-0.64886 1.92909,-1.13052c1.55568,0.01976 2.99002,-0.51238 4.11647,-1.4149c3.76564,0.06349 8.06294,1.87676 10.67478,3.83714c0.23692,-2.14044 0.43239,-4.25303 0.46003,-6.30813c0,0 0.02172,-1.61408 1.63579,-1.59236c1.61408,0.02172 1.59236,1.63579 1.59236,1.63579c-0.11536,8.57531 -3.47295,18.41564 0.42114,26.6777c1.3767,2.92092 3.30081,3.284 5.28506,5.30393c0.81663,0.83133 1.31706,2.08123 2.37853,2.56212c3.48412,1.84007 6.1531,4.97364 10.09956,6.19828c11.22233,3.48242 22.70005,4.39902 34.61206,4.63963c4.66683,1.62567 14.27108,2.43104 19.18188,1.22457c2.24067,-0.55049 3.93759,-1.77309 6.35731,-1.80113c-0.01369,-0.09879 -0.02034,-0.20498 -0.01881,-0.31914c0.02172,-1.61408 1.63579,-1.59236 1.63579,-1.59236l0.21988,0.17339c3.42678,-1.58321 7.01467,-1.35888 10.52705,-2.73848c3.57492,-1.40421 6.08476,-3.84689 9.41151,-5.49095c2.95099,-1.38548 4.21719,-3.59854 6.10267,-6.02717c1.74472,-2.24734 4.86312,-3.85395 5.49646,-6.90649c1.57653,-7.59852 -4.10689,-13.45777 -7.16019,-19.77548c0,0 -0.70242,-1.45339 0.75096,-2.15581c1.45339,-0.70242 2.15581,0.75096 2.15581,0.75096c1.90916,3.95027 4.76778,7.47451 6.46603,11.50467c3.07609,-1.34753 5.40204,-1.26182 6.48669,-5.31424zM182.60998,209.66828c-5.17777,-5.41176 -17.70741,-5.23695 -13.49359,5.61262c1.27687,3.28763 8.91937,2.90013 11.68755,2.93739l-0.19097,-0.47391c0,0 1.05771,-1.02964 2.13485,-0.10824c-0.00239,-2.49964 0.23725,-5.03141 0.51963,-7.54859c-0.39789,-0.1526 -0.65746,-0.41925 -0.65746,-0.41925z" data-paper-data="{&quot;index&quot;:null}" fill="#000000" stroke-width="0.5"/><path d="M276.77194,204.12832c0.03198,-2.37715 1.98496,-4.27828 4.36211,-4.24632c2.37715,0.03198 4.27828,1.98496 4.24632,4.36211c-0.03198,2.37715 -1.98496,4.27828 -4.36211,4.24632c-2.37715,-0.03198 -4.27828,-1.98496 -4.24632,-4.36211z" data-paper-data="{&quot;index&quot;:null}" fill="#000000" stroke-width="0.5"/><path d="M203.10088,205.96983c0.03198,-2.37715 1.98496,-4.27828 4.36211,-4.24632c2.37715,0.03198 4.27828,1.98496 4.24632,4.36211c-0.03198,2.37715 -1.98496,4.27828 -4.36211,4.24632c-2.37715,-0.03198 -4.27828,-1.98496 -4.24632,-4.36211z" data-paper-data="{&quot;index&quot;:null}" fill="#000000" stroke-width="0.5"/><path d="M239.57991,211.18147c0.02,-1.48574 1.24059,-2.67393 2.72632,-2.65394c1.48574,0.02 2.67393,1.24059 2.65394,2.72632c-0.02,1.48574 -1.24059,2.67393 -2.72632,2.65394c-1.48574,-0.02 -2.67393,-1.24059 -2.65394,-2.72632z" data-paper-data="{&quot;index&quot;:null}" fill="#000000" stroke-width="0.5"/><path d="M278.30244,220.19167c0.00443,-0.12492 0.08957,-1.6048 1.63555,-1.58399c1.61408,0.02172 1.59236,1.63579 1.59236,1.63579l-0.92437,2.37569c-3.7022,1.73815 -6.06105,4.92825 -9.318,7.29382c-2.93966,2.13514 -6.59814,3.38328 -9.51631,5.53709c-1.43147,1.05654 -2.66463,2.60316 -4.39058,3.03502c-4.09245,1.02402 -9.9082,-0.09012 -14.13549,-0.14698c-13.6297,-0.34693 -27.42377,-6.65553 -39.6551,-12.97828c0,0 -1.43397,-0.74125 -0.6927,-2.17522c0.74125,-1.43397 2.17522,-0.6927 2.17522,-0.6927c11.60354,5.99822 25.2541,12.63953 38.216,12.61805c4.07027,0.05475 9.43034,1.06192 13.39264,0.22334c1.53444,-0.32474 2.02513,-1.65282 3.23771,-2.52745c2.95018,-2.12795 6.58718,-3.39069 9.51631,-5.53709c3.13646,-2.29832 5.50549,-5.15199 8.86672,-7.07709z" data-paper-data="{&quot;index&quot;:null}" fill="#000000" stroke-width="0.5"/><path d="M256.56373,227.38052l-1.87166,0.59102c-7.45587,2.55248 -12.45777,2.58201 -20.20715,1.5248c0,0 -6.92867,-0.9609 -5.96775,-7.88958c0.13327,-0.96098 0.38135,-1.77018 0.70981,-2.45125c-0.79783,0.29473 -1.74669,0.46405 -2.87521,0.44888c-5.05762,-0.06803 -6.40886,-3.74406 -6.76941,-5.7746c-1.76985,-1.11205 -2.70223,-2.7959 -2.70223,-2.7959l-2.74377,-4.95518c0,0 -3.38847,-6.11947 2.73101,-9.50794c3.02597,-1.67554 5.38418,-1.02626 6.99513,0.05835c0.03293,-0.52226 0.047,-1.06055 0.0402,-1.61853c0,0 0.03373,-2.50681 1.56156,-4.49876c-0.19679,-0.37282 -0.28981,-0.61474 -0.28981,-0.61474l-1.41073,-3.6738c-3.36585,-9.47927 -8.08204,-16.53328 -9.01325,-26.3148c-5.59396,0.30576 -11.29145,-0.20206 -16.90148,0.29254c0,0 -9.11331,0.78767 -9.90097,-8.32564c-0.12544,-1.4511 0.00019,-2.69113 0.30005,-3.75049c-1.74731,-1.46849 -3.08871,-3.20002 -3.5807,-5.36235c-2.1063,-9.25735 7.84884,-14.32102 14.66444,-16.26203c1.97604,-2.79216 5.31848,-3.74608 5.31848,-3.74608c7.95118,-2.26641 16.91534,-6.24111 24.98784,-7.63158c15.16315,-2.6118 36.72024,0.86744 50.38328,7.72174c7.167,3.59546 16.72528,12.58596 18.86779,20.80674c1.16807,4.48184 3.97732,9.72932 1.74095,13.78516c-2.26262,4.10349 -8.45604,4.04077 -12.68404,6.06118c-10.78455,-0.14509 -20.9549,-3.54423 -30.6977,-8.01213c2.05525,8.65687 5.93421,16.80886 8.25971,25.40827c1.08747,1.54849 2.84721,5.07049 -0.34045,8.60838c1.57966,2.05517 1.54436,4.67897 1.54436,4.67897c-0.0887,6.59308 -0.21934,12.1102 -1.86342,18.53423l-1.75578,4.39084c0,0 -0.54156,1.30283 -1.72339,2.49503c1.18071,5.87274 -4.8057,7.77912 -4.8057,7.77912zM236.4067,215.63898c5.53333,0.78197 8.11237,1.20996 13.21618,-0.70445c-0.03708,-1.78187 0.55166,-3.19817 0.55166,-3.19817l1.14866,-2.59617c1.45226,-5.26704 1.3267,-9.68855 1.40011,-15.14711c0,0 0.03642,-2.70712 1.74812,-4.73035l-2.13228,-3.41467c-2.39956,-10.5704 -7.22353,-20.18761 -9.38433,-30.80146l-3.80152,0.83722c-3.596,-0.16097 -7.08888,0.5407 -10.58303,1.39932c0.09393,9.11883 5.26636,15.70329 8.35747,24.20462l1.3047,3.38882c0,0 1.58724,4.12826 -1.0452,7.08158c0.72528,1.6654 0.7041,3.24065 0.7041,3.24065c-0.20878,7.00614 -2.0531,11.90863 -4.51443,18.21416c-0.08947,0.65503 -0.30496,1.6797 -0.82323,2.70837c1.94981,-0.74629 3.85305,-0.48233 3.85305,-0.48233z" data-paper-data="{&quot;index&quot;:null}" fill="#ffffff" stroke-width="0.5"/></g></g></svg>