<svg version="1.1" xmlns="http://www.w3.org/2000/svg" xmlns:xlink="http://www.w3.org/1999/xlink" width="158.05107" height="19.48623" viewBox="0,0,158.05107,19.48623"><g transform="translate(-160.97445,-170.25691)"><g data-paper-data="{&quot;isPaintingLayer&quot;:true}" fill-rule="nonzero" stroke="none" stroke-linecap="butt" stroke-linejoin="miter" stroke-miterlimit="10" stroke-dasharray="" stroke-dashoffset="0" style="mix-blend-mode: normal"><path d="M305.62728,185.06026c-0.00973,0.09394 0.09254,0.18469 0.29071,0.2701l-1.03236,0.21754c-2.65387,0.44956 -4.69934,0.94212 -6.9898,1.42075c0,0 -0.4903,0.10306 -0.16409,0.20427c-1.04312,0.1765 -2.39592,0.26331 -3.58082,0.45719c0,0 -0.64332,0.10844 -0.26865,0.22094c-1.04811,0.07321 -2.16548,0.1241 -3.31737,0.13998c0,0 -4.19519,0.10147 -5.3561,0.57436c-2.51086,0.14195 -4.85492,0.30526 -7.45216,0.43508c0,0 -0.86548,0.04326 -1.07972,0.14889c-2.60642,0.06544 -5.21238,0.08692 -8.73953,0.16804c-6.02397,0.13854 -9.98263,0.33735 -16.19223,0.3216c0,0 -0.7186,-0.00126 -1.69397,0.02726c0.00707,-0.00497 0.01121,-0.01037 0.01181,-0.01624c0.00769,-0.07438 -0.56447,-0.07538 -0.56447,-0.07538c-2.67014,-0.00467 -6.3414,-0.01109 -9.01154,-0.01576c0,0 -0.57218,-0.001 -0.57987,0.07338c-0.00211,0.02026 0.03884,0.03509 0.09952,0.04592c-0.87568,0.00686 -1.75156,0.01657 -2.60543,0.02849c-1.5985,-0.09555 -3.11588,-0.0982 -3.11588,-0.0982l-6.19546,-0.01083c-5.84132,-0.01021 -11.52608,-0.01769 -17.32902,-0.0926c-1.20448,-0.13315 -2.43985,-0.18909 -2.43985,-0.18909l-1.87953,-0.08468c-7.27206,-0.29577 -14.35498,-0.45389 -21.30678,-0.83662c-0.82128,-0.08388 -1.63405,-0.18735 -2.91382,-0.31782l-1.49458,-0.14985c0,0 -0.12525,-0.01256 -0.32903,-0.02511c-0.72334,-0.20587 -2.03163,-0.37007 -3.6521,-0.45619c-1.63171,-0.28376 -3.66096,-0.75619 -5.65757,-1.26549l-0.72258,-0.40126c0,0 -0.64842,-0.35757 -2.87783,-0.55986c-0.02765,-0.00767 -0.05521,-0.01533 -0.0827,-0.02297c0.27462,-0.09449 0.42962,-0.1967 0.44068,-0.30354c0.02442,-0.23596 -0.65765,-0.45177 -1.79132,-0.61338c0.11442,-0.06266 0.17807,-0.12791 0.18501,-0.19499c0.02522,-0.24371 -0.70325,-0.46592 -1.90453,-0.62913c0.19025,-0.07987 0.29666,-0.1646 0.30575,-0.25246c0.02417,-0.23353 -0.64369,-0.44732 -1.75648,-0.60837c-0.10609,-0.4018 -0.71585,-0.778 -1.23477,-1.1622c0.09703,-0.03585 0.17701,-0.07275 0.2386,-0.11055c0.00599,0.03111 0.00782,0.06253 0.00455,0.09431c0,0 -0.00769,0.07438 0.56447,0.07538c0.57218,0.001 0.57987,-0.07338 0.57987,-0.07338c0.02781,-0.26882 -0.36815,-0.52758 -0.45508,-0.78014c0.61828,-0.35814 0.94463,-0.78007 0.87608,-1.16293c1.27845,-0.42668 4.11064,-0.81326 5.46512,-1.22795l0.08414,0.00963c0,0 1.54514,-0.09708 0.79896,-0.29795c0.68552,-0.02583 1.25653,-0.04107 1.4705,-0.04027c0,0 0.57218,0.001 0.57987,-0.07338c0.00769,-0.07438 -0.56447,-0.07538 -0.56447,-0.07538c-0.10449,-0.00002 -0.2318,0.00115 -0.37765,0.00346c-0.10245,-0.00429 -0.18556,-0.00444 -0.18556,-0.00444c-1.49669,-0.00262 -2.8934,-0.03845 -4.07857,-0.11147c-0.41107,-0.10247 -0.97084,-0.19334 -1.64254,-0.26772c-0.20186,-0.07132 -0.4378,-0.14053 -0.70528,-0.20728c-0.09068,-0.02263 -0.18499,-0.04499 -0.28286,-0.06704l-0.07405,-0.30391c-0.11621,-0.04745 -0.23244,-0.09489 -0.34865,-0.14233c0.74449,-0.26339 1.32736,-0.60739 1.99288,-0.89848c0.75644,-0.09642 1.49962,-0.19328 2.12346,-0.29373c1.52253,-0.05132 2.84231,-0.16895 3.76309,-0.32804c0.42285,-0.01992 0.68593,-0.06179 0.84309,-0.09854c0.13807,0.00578 0.27309,0.01162 0.40475,0.0175c0,0 0.54286,0.02352 0.72382,-0.04705c0.18096,-0.07057 -0.3619,-0.0941 -0.3619,-0.0941c-0.14379,-0.00608 -0.29078,-0.01212 -0.44075,-0.01812c1.28066,-0.80412 2.52077,-1.70881 8.14954,-2.23072l0.49651,-0.09659c3.51516,-0.29743 7.58143,-0.46134 12.69406,-0.77341c3.68932,-0.22519 6.29386,-0.53184 9.23226,-0.7983c0.12094,-0.00347 0.24129,-0.00705 0.36107,-0.01073c1.28011,-0.00759 2.57181,-0.01162 3.889,-0.01162c0,0 0.57223,0 0.57223,-0.07439c0,-0.06778 -0.47499,-0.0738 -0.55945,-0.07434c2.19588,-0.11084 4.3168,-0.24767 6.62012,-0.38516c0.72336,0.11664 1.91212,0.05722 1.91212,0.05722c2.82249,-0.14107 5.68277,-0.22 8.56761,-0.25318c3.05964,0.01574 6.11612,0.05214 9.20241,0.0858c1.72995,0.01887 3.44924,0.03459 5.16033,0.04833c0.96766,0.02405 1.93561,0.05016 2.90338,0.07771l1.40948,0.00577c3.95838,0.09628 10.3047,0.07104 13.19522,0.06737c1.77879,0.11562 6.36422,0.1644 9.42315,0.17925c3.36573,0.09598 6.60741,0.2212 9.582,0.38369c0,0 1.18833,0.06421 1.93492,-0.05231c1.84528,0.13539 3.69504,0.27474 5.81005,0.35569c0.2816,0.06395 0.76639,0.09653 0.76639,0.09653l0.48973,0.02886c0.74302,0.0745 1.51786,0.15212 2.31646,0.23027c0.29747,0.17707 1.50349,0.28467 1.50349,0.28467l1.43658,0.12613c1.8688,0.19782 3.74107,0.32726 5.41435,0.50102c0.5625,0.23153 1.28096,0.44203 2.81059,0.55924c0.52654,0.04035 1.05306,0.08069 1.57962,0.12104c-0.00266,0.00837 -0.00442,0.01676 -0.00529,0.02518c-0.01948,0.18832 0.41106,0.36382 1.16207,0.50916c-0.10571,0.02845 -0.16636,0.06028 -0.16984,0.09395c-0.01145,0.11054 0.59731,0.20339 1.40696,0.22255c-0.2337,0.02622 -0.47495,0.04674 -0.72929,0.05916c0,0 -0.51182,0.03327 -0.2559,0.09981c0.2559,0.06654 0.76772,0.03327 0.76772,0.03327c0.54144,-0.0398 0.9696,-0.09481 1.35727,-0.15617c0.16535,0.0164 0.37412,0.0164 0.37412,0.0164h0.56781c0.24654,0 0.49209,0.00024 0.7368,0.00068c0.49912,0.01599 1.01998,0.02488 1.55602,0.02582c0.44457,0.00078 0.87985,-0.00395 1.30197,-0.01371c0.89828,0.00528 1.79484,0.01126 2.69896,0.01594c0.24933,0.04163 0.60981,0.0715 1.02442,0.08202c0.29971,0.06176 0.82632,0.10319 1.42983,0.10424c0.27087,0.00048 0.52794,-0.00723 0.75726,-0.02136c0.2263,0.01492 0.48169,0.02353 0.75254,0.024c0.45002,0.00079 0.86193,-0.02101 1.17187,-0.05731c0.34885,0.03195 0.7097,0.06185 1.08153,0.08955c0.11964,0.03036 0.29131,0.05673 0.49992,0.07707c0.12742,0.02337 0.2886,0.04342 0.47444,0.05895c-0.03729,0.0178 -0.05805,0.03649 -0.06004,0.05579c-0.00085,0.00829 0.00176,0.01648 0.00771,0.02455c-0.00759,0.00805 -0.01192,0.01623 -0.01279,0.02452c-0.00813,0.07846 0.29623,0.14801 0.76307,0.18862c0.07416,0.05761 0.31839,0.10785 0.66408,0.14156c0.02095,0.00384 0.04278,0.00759 0.06551,0.01125c-0.26918,0.39793 -0.21621,0.80014 0.11886,1.17063c-0.16406,0.01307 -0.27352,0.03661 -0.27352,0.06346c0,0.00263 0.00105,0.00523 0.00309,0.00779c-0.23447,0.05916 -0.45544,0.11972 -0.65801,0.18228c-0.92541,0.03564 -1.77015,0.09599 -2.48829,0.17523c-1.88065,-0.0031 -3.59458,0.0924 -4.85032,0.24962c-0.08773,-0.0057 -0.17547,-0.01141 -0.2632,-0.01711c0,0 -0.51182,-0.03326 -0.76772,0.03327c-0.02648,0.00689 -0.04472,0.01342 -0.05619,0.01959c-0.23793,-0.03314 -0.51077,-0.06431 -0.87949,-0.08976c0,0 -0.41539,-0.027 -0.68484,0.0163c-0.00604,-0.00079 -0.01208,-0.00157 -0.01815,-0.00236c0,0 -0.40463,-0.0526 -0.80924,0c-0.40463,0.0526 0,0.1052 0,0.1052c0.04395,0.00571 0.08764,0.01144 0.13111,0.01719c-0.02783,0.00421 -0.05548,0.00862 -0.0829,0.01324c-1.04839,0.17672 0.31097,0.31301 0.31097,0.31301c0.35309,0.03466 0.7181,0.06813 1.0935,0.10013c-0.04637,0.03994 -0.0724,0.08077 -0.0767,0.12229c-0.0287,0.27745 0.91936,0.52704 2.42981,0.69342c-0.0317,0.26755 -0.65201,0.69942 0.79393,0.90314c-0.12475,0.54557 -0.25583,1.04912 0.1447,1.53346c-0.019,0.20415 0.15746,0.40853 0.60061,0.6123c-1.34159,0.93529 -3.27509,1.84932 -4.54802,2.80057c-0.1349,0.10084 -0.23864,0.20574 -0.33049,0.31305c-1.28384,0.15972 -2.09292,0.38373 -2.11872,0.63297z" data-paper-data="{&quot;index&quot;:null}" fill="#ffffff" stroke-width="0"/><path d="M248.3252,189.74313c-0.2296,-0.00839 -0.47076,-0.01602 -0.72224,-0.02291c0.3616,0.00064 0.72318,0.00127 1.08478,0.0019c-0.12035,0.00649 -0.24139,0.01348 -0.36252,0.02102z" data-paper-data="{&quot;index&quot;:null}" fill="#ffffff" stroke-width="0"/><path d="M160.97445,182.40066c0.22125,-0.04779 0.40908,-0.09852 0.55925,-0.15163c0.06155,0.06872 0.11277,0.1379 0.15045,0.20771c-0.22692,-0.02047 -0.46387,-0.03922 -0.70965,-0.05608z" data-paper-data="{&quot;index&quot;:null}" fill="#ffffff" stroke-width="0"/><path d="M167.19938,177.84187c0.10222,0.00455 0.2054,0.0089 0.30948,0.01304l-0.24748,0.02027c-0.01909,-0.01118 -0.03976,-0.02228 -0.06203,-0.0333z" data-paper-data="{&quot;index&quot;:null}" fill="#ffffff" stroke-width="0"/><path d="M304.20648,176.76371c1.63574,-0.06772 2.15663,0.14493 2.15663,0.14493l0.5809,0.2383c-0.08201,0.07727 0.23125,0.13899 0.46369,0.17304c0.4884,0.13275 0.92762,0.26465 1.32234,0.39612c0.13323,0.11626 0.43921,0.22532 0.88333,0.32254c0.54469,0.2196 0.97505,0.43882 1.31317,0.65946c-0.00583,0.13922 0.09614,0.27579 0.49523,0.38173c0.15933,0.1483 0.28341,0.2977 0.37877,0.44872c-0.07805,0.40965 -0.08737,0.79708 0.22344,1.17293c-0.00584,0.06275 0.00679,0.12554 0.03996,0.18831c-0.0005,0.00516 -0.00105,0.01032 -0.00158,0.01549c-0.03433,0.33184 -0.15297,0.66976 -0.37213,1.00902c-1.20765,0.72928 -2.61427,1.4532 -3.61372,2.20007c-0.1349,0.10084 -0.23864,0.20574 -0.33049,0.31305c-1.28384,0.15972 -2.09292,0.38373 -2.11872,0.63297c-0.0038,0.03667 0.00947,0.07285 0.03884,0.10842c-0.54382,0.18162 -1.12536,0.37616 -1.77898,0.55521c-0.99011,0.18127 -1.90276,0.36807 -2.79028,0.55693c-2.10002,0.32397 -4.85611,0.70573 -4.89468,1.07827c-0.21184,0.02839 -0.42683,0.05658 -0.64492,0.08455c-0.32694,0.037 -0.65487,0.07621 -0.97516,0.1212c-1.23104,0.14834 -2.54832,0.29018 -3.93725,0.42503c-0.02665,0.0004 -0.05331,0.00079 -0.08,0.00116c0,0 -3.28787,0.07952 -4.84766,0.42586c-4.48148,0.34692 -9.43643,0.62932 -14.49952,0.83496c-1.01266,0.01772 -2.09442,0.03826 -3.28032,0.06553c-5.67219,0.13045 -9.51326,0.31434 -15.12654,0.32222c-0.2017,-0.00002 -0.4028,-0.00021 -0.60324,-0.00056c0,0 -1.71652,-0.003 -1.69342,-0.22615c0.02309,-0.22315 1.73961,-0.22015 1.73961,-0.22015c14.08304,0.02463 30.08545,-0.80089 40.79437,-2.00999c0.04662,-0.45068 4.1894,-0.98261 6.35662,-1.33933c1.67492,-0.27569 2.87621,-0.78936 3.93924,-1.12285c3.73254,-1.17094 5.15289,-2.54193 5.28528,-3.82143c0.13154,-1.27128 -0.30559,-2.3045 -4.53317,-3.44699l-1.00446,-0.4082c0,0 -0.52091,-0.21265 1.11483,-0.28037z" data-paper-data="{&quot;index&quot;:null}" fill="#000000" stroke-width="0.5"/><path d="M269.34298,179.30201l2.00785,0.00351c5.67212,0.00992 10.62798,-0.02341 15.76251,-0.17207c-0.60693,-0.21434 -1.31848,-0.43206 -2.15079,-0.65594l-0.97693,-0.26278c0,0 -0.74701,-0.20094 0.79862,-0.29805c1.54562,-0.09711 2.29263,0.10382 2.29263,0.10382l0.9769,0.26278c0.9346,0.2514 1.72679,0.49628 2.39634,0.7379c0.48976,-0.01878 0.98274,-0.03871 1.47966,-0.05982c0,0 1.63576,-0.06772 2.15665,0.14493c0.52091,0.21265 -1.11483,0.28037 -1.11483,0.28037c-0.49171,0.0199 -0.98027,0.03885 -1.46632,0.05686c2.03574,0.91357 2.44729,1.80774 2.33781,2.86579c0,0 -0.02309,0.22315 -1.73961,0.22015c-1.71652,-0.003 -1.69342,-0.22615 -1.69342,-0.22615c0.10584,-1.02284 -0.25102,-1.87294 -2.22838,-2.74968c-5.50442,0.16064 -10.8433,0.20875 -16.87705,0.1982l-1.6964,-0.00297c2.36361,0.72983 3.25233,1.55802 3.16592,2.39307c0,0 -0.02309,0.22315 -1.73961,0.22015c-1.71652,-0.003 -1.69342,-0.22615 -1.69342,-0.22615c0.09744,-0.94162 -1.1147,-1.87724 -4.49181,-2.63178c-1.59273,-0.35586 -1.11797,-0.78624 -4.2276,-0.96939l-0.23873,0.02314c0,0 -1.71652,-0.003 -1.69342,-0.22615c0.02309,-0.22315 1.73961,-0.22015 1.73961,-0.22015l1.76914,0.02666c4.0909,0.29656 3.47226,0.66195 5.59558,1.13636c0.12072,0.02697 0.23892,0.05413 0.35469,0.08146c0.51029,-0.05527 1.19437,-0.05407 1.19437,-0.05407z" data-paper-data="{&quot;index&quot;:null}" fill="#000000" stroke-width="0.5"/><path d="M229.10438,177.99163c1.2301,-0.15567 2.42752,0.00425 2.42752,0.00425l1.30598,0.19083c6.22819,1.67532 12.93959,2.85152 12.73576,4.82139c0,0 -0.02309,0.22315 -1.73961,0.22015c-1.71652,-0.003 -1.69342,-0.22615 -1.69342,-0.22615c0.19614,-1.89543 -6.3937,-3.00715 -12.39396,-4.62116l-0.67488,-0.07371c0,0 -1.19744,-0.15991 0.03266,-0.31558z" data-paper-data="{&quot;index&quot;:null}" fill="#000000" stroke-width="0.5"/><path d="M209.03986,179.84924c0,0 1.71652,0.003 1.69342,0.22615c-0.02309,0.22315 -1.73961,0.22015 -1.73961,0.22015c-0.33885,-0.0006 -0.67767,-0.00119 -1.01652,-0.00178c1.33413,0.77686 3.68232,1.57219 6.28253,2.15315c0,0 0.86333,0.19289 -0.62045,0.30513c-1.48378,0.11223 -2.34713,-0.08066 -2.34713,-0.08066c-2.86168,-0.63938 -5.42772,-1.52741 -6.81516,-2.38375c-5.93393,-0.01038 -11.86786,-0.02075 -17.80179,-0.03113c0.06127,0.30344 0.26237,0.6003 0.80569,0.90176c0.54084,0.3001 -0.25766,0.81176 2.01613,0.89946c0,0 1.52498,0.10248 0.73666,0.30073c-0.7883,0.19825 -2.31328,0.09577 -2.31328,0.09577c-6.01301,-0.48832 -4.74983,-2.0837 -4.66029,-2.94903l0.04051,-0.39154c0,0 0.02309,-0.22315 1.73961,-0.22015c1.71652,0.003 1.69342,0.22615 1.69342,0.22615l-0.04051,0.39154c-0.01047,0.10105 -0.02308,0.20057 -0.0315,0.2989c5.541,0.00969 11.51031,0.02013 17.19736,0.03007c-0.32475,-0.28731 -0.49211,-0.56506 -0.46634,-0.82191l0.0135,-0.13051c0,0 0.02309,-0.22315 1.73961,-0.22015c1.71652,0.003 1.69342,0.22615 1.69342,0.22615l-0.0135,0.13051c-0.02742,0.25659 0.15159,0.53475 0.49612,0.82197c0.57765,0.00101 1.15059,0.00202 1.71812,0.00301z" data-paper-data="{&quot;index&quot;:null}" fill="#000000" stroke-width="0.5"/><path d="M167.90489,176.2662c-1.39609,0.67809 0.83575,1.31409 6.50151,0.93529c0,0 0.50106,-0.03148 1.07047,-0.02151c0.27579,-0.04133 0.58587,-0.07759 0.9509,-0.10549l-0.95603,0.06742c0,0 0.02309,-0.22315 1.73961,-0.22015c1.71652,0.003 1.69342,0.22615 1.69342,0.22615l-0.98304,0.32845c-1.82084,0.06335 -4.12217,0.62965 -5.3574,0.93605c-1.76472,0.43774 -5.02871,0.89051 -6.028,1.37587c-1.34414,0.65285 -0.1214,1.61691 -0.19188,2.29803c-0.10918,0.33848 1.46824,0.53377 1.89487,0.88132c2.05531,1.67437 7.24695,3.88088 17.72371,4.89899c12.30669,0.82251 27.28665,1.25802 41.19259,1.28234c0,0 1.71652,0.003 1.69342,0.22615c-0.02309,0.22315 -1.73961,0.22015 -1.73961,0.22015c-5.99523,-0.01049 -12.19527,-0.09564 -18.31233,-0.2532c-0.29344,-0.01776 -0.47616,-0.02604 -0.47616,-0.02604l-1.87953,-0.08468c-4.79435,-0.19499 -9.50649,-0.33016 -14.15305,-0.5093c-2.82194,-0.1428 -5.55896,-0.30273 -8.17646,-0.47951c-7.85127,-0.81588 -13.18054,-2.15017 -16.36598,-3.51449c-0.09007,-0.06797 -0.23935,-0.13334 -0.4408,-0.19518c-0.4096,-0.18764 -0.7791,-0.37542 -1.10948,-0.56205c-0.05496,-0.06317 -0.16071,-0.12438 -0.31191,-0.1829c-0.41949,-0.25561 -0.7655,-0.50829 -1.04056,-0.75472c-0.41123,-0.36843 -1.91513,-0.57053 -1.93179,-0.95288c0.01927,-0.18632 -0.04498,-0.38924 -0.12715,-0.59978c0.24764,-0.02037 0.25201,-0.06268 0.25201,-0.06268c0.02781,-0.26882 -0.36815,-0.52758 -0.45508,-0.78014c0.57024,-0.33032 0.89217,-0.7149 0.88496,-1.07305c0.62789,-0.25113 1.62105,-0.49271 2.77779,-0.72442c0.18014,-0.03503 0.36028,-0.07003 0.5384,-0.10503c1.54649,-0.29428 3.31309,-0.57211 4.87007,-0.83279c0.06381,-0.00617 0.12144,-0.01475 0.15896,-0.02668c0.28472,-0.04792 0.56181,-0.09524 0.82854,-0.14198c-5.65189,0.10497 -9.12306,-0.51066 -8.46715,-1.29518c0.40498,-0.17851 0.77567,-0.37297 1.16487,-0.55451c0.76058,-0.20265 1.78901,-0.33179 2.99938,-0.43282c0.64623,-0.03064 1.2475,-0.07355 1.78688,-0.1266c1.08846,-0.06783 2.268,-0.13111 3.49462,-0.21312l0.11735,-0.00135c-0.00515,-0.00287 -0.01025,-0.00575 -0.01531,-0.00863c-1.60749,-0.91408 3.27549,-1.98096 9.13212,-2.64227c3.15179,-0.22639 6.75919,-0.38492 11.132,-0.65183c3.27022,-0.19962 5.68817,-0.46324 8.24178,-0.70613c1.52915,-0.03453 3.05761,-0.06168 4.52532,-0.11413c0.23768,-0.00027 0.47614,-0.0004 0.71542,-0.0004c0,0 0.45572,0 0.55378,-0.05287c0.06411,-0.00314 0.12809,-0.00636 0.19188,-0.00965c0.01177,-0.07814 0.38882,-0.13159 0.67699,-0.16113c0.97052,-0.05391 1.93715,-0.11191 2.9227,-0.17175c1.14793,-0.003 2.09553,-0.03443 3.00013,-0.07543c0.60429,0.02391 1.19938,-0.00583 1.19938,-0.00583c2.75039,-0.13747 5.53671,-0.21593 8.34668,-0.25055c0.14002,-0.00061 0.28074,-0.00113 0.4221,-0.00157c2.99247,0.01627 5.98264,0.05182 9.00129,0.08474c0.72176,0.00787 1.44166,0.0152 2.15992,0.02206c1.68531,0.03876 3.21517,0.08705 4.46269,0.14355c1.97321,0.00138 3.94517,0.00624 5.91344,0.01532c1.14601,0.0115 2.35221,0.01785 3.53656,0.02107c8.05743,0.0592 16.02766,0.1971 23.7405,0.46489c0.63055,0.03023 1.25112,0.06195 1.86049,0.09524c0,0 0.51356,0.02776 1.07755,0.01367c0.37227,0.01469 0.74389,0.02971 1.11481,0.04506c3.83583,0.15872 6.56084,0.51605 9.77196,0.77515c0.4148,0.07039 0.85674,0.10982 0.85674,0.10982l1.43658,0.12613c0.50299,0.05324 1.0062,0.10153 1.50573,0.14706c0.37114,0.05691 0.73727,0.11454 1.12918,0.16742c1.09599,0.14789 2.22385,0.25068 3.28102,0.36774c0.50706,0.15701 1.1916,0.29242 2.30897,0.37803c0.11497,0.00881 0.22994,0.01762 0.34491,0.02643c0.11293,0.02596 0.22289,0.05315 0.32962,0.08173c1.3361,0.35774 1.96349,0.7328 2.1805,1.11608l0.60402,-0.05182c0.16421,0.00033 0.29708,-0.00831 0.29708,-0.00831c0.37621,-0.02765 0.69773,-0.06265 0.98897,-0.10202l0.31591,-0.0271c0.69615,0.00121 1.43979,0.00156 2.21076,0.00302c0.35025,0.00781 0.70972,0.01217 1.07622,0.01281c0.29865,0.00052 0.59312,-0.00144 0.88221,-0.00575c1.11825,0.00652 2.25734,0.01843 3.36288,0.04111c0.21925,0.02422 0.48613,0.04142 0.78019,0.04888c0.29971,0.06176 0.82632,0.10319 1.42983,0.10424c0.27087,0.00048 0.52794,-0.00723 0.75726,-0.02136c0.2263,0.01492 0.48169,0.02353 0.75254,0.024c0.09446,0.00016 0.18726,-0.00067 0.27776,-0.00242c0.53439,0.03425 1.03445,0.07438 1.48971,0.12142c1.32044,0.13643 2.28503,0.40588 2.77364,0.71047c-0.10667,0.27481 -0.06338,0.54857 0.11664,0.80946c-0.23532,0.15993 -0.64499,0.30487 -1.24878,0.41871c-0.75506,0.03646 -1.44798,0.08971 -2.05152,0.1563c-1.65442,-0.00274 -3.17979,0.07083 -4.37773,0.19561c-4.00463,-0.00878 -8.57468,-0.25947 -11.35228,-0.5305c-0.25196,0.29592 -0.45984,0.588 -0.48923,0.87212c0,0 -0.02309,0.22315 -1.73961,0.22015c-1.71652,-0.003 -1.69342,-0.22615 -1.69342,-0.22615c0.12268,-1.18556 3.69337,-2.54602 -0.44787,-3.68827c-1.46408,-0.40382 -3.51031,-0.45402 -5.62049,-0.73328c-0.86846,-0.11493 -1.40065,-0.28774 -2.52949,-0.35422c-3.70525,-0.25439 -6.54362,-0.68762 -10.74055,-0.85693c-11.93458,-0.48145 -24.14076,-0.60818 -36.8088,-0.64144c-4.96302,-0.22475 -15.17683,-0.3361 -20.3993,-0.1693c-2.38288,0.07611 -4.18749,0.24513 -6.76079,0.24901c0.01455,0.01366 0.02163,0.02834 0.02,0.04412c-0.02309,0.22315 -1.73961,0.22015 -1.73961,0.22015l-0.23383,-0.02397c-3.64427,0.21888 -7.45987,0.18787 -11.19517,0.3786c-3.80182,0.19414 -6.47095,0.53184 -10.00884,0.75914c-3.13828,0.19154 -4.48484,0.4975 -6.48999,0.83327c-1.85545,0.3107 -5.17177,0.53282 -5.8453,0.95484c-1.6766,1.05052 4.36754,1.86058 7.61462,2.73402c0,0 0.74701,0.20094 -0.79862,0.29805c-1.54562,0.09711 -2.29263,-0.10382 -2.29263,-0.10382c-2.03033,-0.54613 -5.07038,-1.03337 -6.87641,-1.59055c-3.27132,0.1863 -5.74489,0.17445 -6.89838,0.73471zM301.03241,175.89833c5.50639,0.74819 18.83125,0.72402 14.34999,-0.77596c-1.35792,-0.45452 -9.48546,-0.40095 -12.42933,-0.4061l0.20309,0.06552c0,0 -1.12484,0.14235 -2.27034,0.01496c0.00254,0.34558 -0.25231,0.6956 -0.55261,1.04361c0.42315,0.0211 0.69919,0.05796 0.69919,0.05796z" data-paper-data="{&quot;index&quot;:null}" fill="#000000" stroke-width="0.5"/><path d="M200.89426,176.66424c-0.03401,0.32865 -2.11094,0.59149 -4.63896,0.58707c-2.52802,-0.00442 -4.54981,-0.27442 -4.51582,-0.60307c0.03401,-0.32865 2.11094,-0.59149 4.63896,-0.58707c2.52802,0.00442 4.54981,0.27442 4.51582,0.60307z" data-paper-data="{&quot;index&quot;:null}" fill="#000000" stroke-width="0.5"/><path d="M279.24102,176.40964c-0.03401,0.32865 -2.11094,0.59149 -4.63896,0.58707c-2.52802,-0.00442 -4.54981,-0.27442 -4.51582,-0.60307c0.03401,-0.32865 2.11094,-0.59149 4.63896,-0.58707c2.52802,0.00442 4.54981,0.27442 4.51582,0.60307z" data-paper-data="{&quot;index&quot;:null}" fill="#000000" stroke-width="0.5"/><path d="M240.44675,175.68912c-0.02126,0.2054 -1.31932,0.36967 -2.89935,0.36691c-1.58002,-0.00276 -2.84363,-0.17151 -2.82237,-0.37692c0.02126,-0.2054 1.31932,-0.36967 2.89935,-0.36691c1.58002,0.00276 2.84363,0.17151 2.82237,0.37692z" data-paper-data="{&quot;index&quot;:null}" fill="#000000" stroke-width="0.5"/><path d="M199.26665,174.44343c-0.00472,0.01727 -0.09527,0.22187 -1.73936,0.21899c-1.71652,-0.003 -1.69342,-0.22615 -1.69342,-0.22615l0.98304,-0.32845c3.93716,-0.2403 6.44572,-0.68134 9.90938,-1.00839c3.12622,-0.29519 7.0169,-0.46775 10.12028,-0.76552c1.52232,-0.14607 2.83375,-0.35989 4.66924,-0.4196c4.35218,-0.14157 10.53705,0.01246 15.03263,0.02032c14.49474,0.04797 29.16428,0.92015 42.1719,1.79429c0,0 1.52498,0.10248 0.73666,0.30073c-0.7883,0.19825 -2.31328,0.09577 -2.31328,0.09577c-12.33999,-0.82927 -26.85691,-1.74745 -40.64147,-1.74448c-4.32861,-0.00757 -10.02887,-0.14682 -14.24264,-0.03088c-1.63182,0.0449 -2.15365,0.22851 -3.44319,0.34943c-3.13742,0.2942 -7.00525,0.46877 -10.12028,0.76552c-3.33552,0.31775 -5.85492,0.71228 -9.42947,0.97843z" data-paper-data="{&quot;index&quot;:null}" fill="#000000" stroke-width="0.5"/><path d="M222.38506,173.44955l1.99045,-0.08171c7.92907,-0.35289 13.24843,-0.35697 21.48964,-0.21081c0,0 7.3684,0.13285 6.3465,1.09076c-0.14173,0.13286 -0.40555,0.24473 -0.75486,0.33889c0.84848,-0.04075 1.85756,-0.06416 3.0577,-0.06206c5.37862,0.00941 6.81561,0.51763 7.19905,0.79836c1.88219,0.15374 2.87374,0.38654 2.87374,0.38654l2.91791,0.68507c0,0 3.60353,0.84603 -2.90434,1.3145c-3.21801,0.23165 -5.72589,0.14188 -7.43909,-0.00807c-0.03502,0.07221 -0.04999,0.14663 -0.04276,0.22377c0,0 -0.03587,0.34658 -1.66067,0.62197c0.20927,0.05154 0.3082,0.08499 0.3082,0.08499l1.50026,0.50791c3.57948,1.31054 8.59498,2.28578 9.5853,3.6381c5.949,-0.04227 12.00808,0.02794 17.97417,-0.04044c0,0 9.69171,-0.1089 10.52936,1.15104c0.13339,0.20062 -0.00021,0.37206 -0.3191,0.51852c1.8582,0.20302 3.28473,0.44241 3.80795,0.74136c2.23999,1.27985 -8.34698,1.97992 -15.59515,2.24827c-2.10146,0.38603 -5.65603,0.51791 -5.65603,0.51791c-8.45582,0.31334 -17.98891,0.86285 -26.57375,1.05509c-16.12551,0.36109 -39.05078,-0.11992 -53.58097,-1.06755c-7.62188,-0.49708 -17.78679,-1.74004 -20.06528,-2.87659c-1.24221,-0.61963 -4.22976,-1.34511 -1.85145,-1.90584c2.40623,-0.56732 8.99272,-0.55865 13.48906,-0.83798c11.46902,0.02006 22.28486,0.49 32.646,1.1077c-2.18569,-1.19684 -6.31084,-2.32388 -8.78393,-3.51277c-1.15649,-0.21408 -3.02792,-0.70101 0.36206,-1.19013c-1.67992,-0.28413 -1.64238,-0.64688 -1.64238,-0.64688c0.09432,-0.91151 0.23326,-1.67427 1.98168,-2.56241l1.86722,-0.60705c0,0 0.57593,-0.18012 1.83277,-0.34495c-1.25565,-0.81193 5.1107,-1.07549 5.1107,-1.07549zM243.82135,175.07286c-5.88451,-0.10811 -8.62723,-0.16728 -14.05497,0.09739c0.03944,0.24635 -0.58667,0.44216 -0.58667,0.44216l-1.22156,0.35893c-1.54444,0.72818 -1.41091,1.33947 -1.48898,2.09413c0,0 -0.03873,0.37426 -1.85907,0.65398l2.26761,0.47209c2.55185,1.46139 7.68199,2.79099 9.97993,4.25839l4.04279,-0.11575c3.82423,0.02225 7.53879,-0.07475 11.25471,-0.19346c-0.09988,-1.26071 -5.60059,-2.17103 -8.88789,-3.34636l-1.38751,-0.46851c0,0 -1.68797,-0.57074 1.11154,-0.97905c-0.77131,-0.23025 -0.74879,-0.44803 -0.74879,-0.44803c0.22203,-0.96862 2.18341,-1.6464 4.80095,-2.51816c0.09515,-0.09056 0.32431,-0.23222 0.87548,-0.37444c-2.07356,0.10317 -4.09759,0.06668 -4.09759,0.06668z" data-paper-data="{&quot;index&quot;:null}" fill="#ffffff" stroke-width="0.5"/></g></g></svg>