<svg version="1.1" xmlns="http://www.w3.org/2000/svg" xmlns:xlink="http://www.w3.org/1999/xlink" width="92.61773" height="108.58962" viewBox="0,0,92.61773,108.58962"><g transform="translate(-193.56777,-125.70519)"><g data-paper-data="{&quot;isPaintingLayer&quot;:true}" fill-rule="nonzero" stroke-miterlimit="10" stroke-dasharray="" stroke-dashoffset="0" style="mix-blend-mode: normal"><path d="M239.90929,137.50412v0c0,-0.5964 0.065,-1.0084 0.1002,-1.1935c2.5588,-3.4106 8.1335,-9.2726 10.2253,-8.9681c0.2222,0.0352 0.7947,0.1201 0.7947,2.2623c0,0.6336 -1.1888,7.9418 -1.1185,8.304c-0.9507,0.9102 -4.4462,4.0038 -7.5013,3.3629c-2.1176,-0.4425 -2.5004,-2.4029 -2.5004,-3.7676z" data-paper-data="{&quot;index&quot;:null}" fill="#ffc93e" stroke="#603813" stroke-width="1.32684" stroke-linecap="butt" stroke-linejoin="miter"/><path d="M231.43869,127.26362v0c0.5553,-0.6031 1.2274,-0.8963 2.0553,-0.895c1.0476,0 2.0102,1.981 2.6219,3.9606l0.8173,2.2656c1.1437,2.45 2.4958,5.6451 2.5721,5.7751c0.1645,0.2833 0.2222,0.5181 0.2222,0.7119c0,0.2209 -0.0743,0.3934 -0.1539,0.53c-0.7855,1.3594 -4.0767,2.2603 -5.9807,2.2835c-0.5573,-0.1864 -3.8459,-1.4263 -3.8459,-4.9982c0,-0.063 0.0047,-0.2348 0.0047,-0.2348l-0.0027,-0.0412c-0.002,-0.0166 -0.0431,-0.5519 -0.0431,-1.3567c0,-1.8967 0.2163,-6.3555 1.7328,-8.0008z" data-paper-data="{&quot;index&quot;:null}" fill="#ffc93e" stroke="#603813" stroke-width="1.32684" stroke-linecap="butt" stroke-linejoin="miter"/><path d="M274.32949,153.15822v0c3.5958,-6.3894 5.6437,-8.6596 8.7572,-7.4018c1.218,0.4923 2.0592,1.5266 2.4354,2.9861c0.9168,3.5718 -0.7271,10.6631 -4.8383,15.7184c-2.8063,3.4518 -14.0546,9.9095 -16.772,9.3224c-0.2255,-0.0465 -0.5453,-0.2209 -0.5758,-0.3304c-0.3171,-0.4067 -0.4233,-1.1424 -0.203,-1.9133c0.611,-2.1402 2.4566,-5.1694 4.5776,-8.097c1.6499,-2.2729 3.5208,-4.855 5.1402,-7.6752z" data-paper-data="{&quot;index&quot;:null}" fill="#ffc93e" stroke="#603813" stroke-width="1.32684" stroke-linecap="butt" stroke-linejoin="miter"/><path d="M230.05149,202.99302v0c-3.7715,-2.0533 -7.0196,1.6446 -9.8836,4.908c-2.3479,2.6729 -5.2483,6.0902 -7.2771,5.3047c-0.5486,-0.2129 -0.9175,-0.5493 -1.1278,-1.0283c-0.7636,-1.7415 1.2247,-5.9608 2.2749,-8.6317c1.1165,-2.8441 1.9226,-4.8987 0.6939,-5.7167c-1.1815,-0.7875 -2.8832,0.4066 -4.6519,1.2518c-2.1813,1.0403 -4.3414,2.1263 -4.9458,1.106c-0.5447,-0.9209 1.8669,-4.8397 3.3609,-7.5252c2.5024,-4.498 5.3379,-9.5957 3.8313,-13.2611l-1.1935,-1.9876c-2.0772,-3.1009 -7.0834,-8.7433 -6.1247,-18.6534c1.0999,-11.3691 11.988,-19.3029 12.0862,-19.3812l0.4007,-0.3171l-0.1745,-0.479c-1.1093,-3.0491 -1.7793,-7.8211 -0.8717,-9.8352c0.3794,-0.8445 0.8445,-1.3096 1.4774,-1.4788c1.898,-0.5082 1.778,1.1431 3.1247,2.9144c6.7132,8.8242 11.9608,8.383 11.9608,8.383l0.1798,-0.0517c3.343,-0.9912 6.8624,-1.4954 10.4608,-1.4954c19.4011,0 33.8955,11.6397 33.8955,28.1748c0,7.8085 -4.1218,16.143 -9.6641,23.0167l-0.0411,0.0504l-0.0298,0.0604c0,0 -0.081,0.15 -0.1301,0.2654c-0.1539,0.4743 -3.743,11.6603 -4.431,15.3807l-0.2899,1.6732c-0.5247,3.128 -1.8715,11.572 -3.9201,11.5408c-1.36,-0.0232 -1.8059,-4.6094 -2.2165,-7.1437c-0.4472,-2.7585 -0.2614,-4.0701 -1.6665,-5.2423c-1.7236,-1.4324 -4.2187,-1.8198 -4.2652,-1.7714c-2.639,2.7904 -6.0875,7.021 -6.0875,7.021l-4.8237,5.4945c-4.7322,5.5521 -16.4051,19.3274 -18.8485,18.0032c-1.2631,-0.684 2.6232,-7.9829 4.8025,-12.3045c3.9872,-7.9039 8.1084,-16.0746 4.1152,-18.2447z" data-paper-data="{&quot;index&quot;:null}" fill="#ffc93e" stroke="#603813" stroke-width="1.32684" stroke-linecap="round" stroke-linejoin="round"/><g data-paper-data="{&quot;index&quot;:null}" stroke="none" stroke-width="0.66342" stroke-linecap="butt" stroke-linejoin="miter"><path d="M233.39979,163.98262c0,-2.9821 2.4195,-5.4003 5.4036,-5.4003c2.984,0 5.4022,2.4182 5.4022,5.4003c0,2.984 -2.4188,5.4055 -5.4022,5.4055c-2.9848,-0.0013 -5.4036,-2.4215 -5.4036,-5.4055z" fill="#ffffff"/><path d="M239.53049,167.93132c-1.0489,0 -1.9996,-0.426 -2.6875,-1.1146c-0.6887,-0.688 -1.1146,-1.6386 -1.1146,-2.6875c0,-1.0489 0.4259,-1.9996 1.1146,-2.6875c0.6879,-0.6887 1.6386,-1.1146 2.6875,-1.1146c1.0488,0 1.9995,0.4259 2.6875,1.1146c0.6886,0.6879 1.1145,1.6386 1.1145,2.6875c0,1.0489 -0.4259,1.9995 -1.1145,2.6875c-0.688,0.6886 -1.6387,1.1146 -2.6875,1.1146z" fill="#603813"/></g><g data-paper-data="{&quot;index&quot;:null}" stroke="none" stroke-width="0.66342" stroke-linecap="butt" stroke-linejoin="miter"><path d="M259.42709,163.98262c0,-2.9821 2.4188,-5.4003 5.4042,-5.4003c2.9821,0 5.4023,2.4182 5.4023,5.4003c0,2.984 -2.4189,5.4055 -5.4023,5.4055c-2.9854,-0.0013 -5.4042,-2.4215 -5.4042,-5.4055z" fill="#ffffff"/><path d="M261.75509,164.12922c0,-2.0997 1.701,-3.8007 3.8014,-3.8007c2.099,0 3.802,1.6996 3.802,3.8007c0,2.0984 -1.703,3.8021 -3.802,3.8021c-2.1004,0 -3.8014,-1.703 -3.8014,-3.8021z" fill="#603813"/></g><path d="M196.09439,143.12532v0c2.8281,-1.8078 5.2595,0.0537 9.9612,5.6809l1.9319,2.2888c2.1063,2.4792 4.4157,4.6698 6.4537,6.6096c2.6219,2.4872 4.9903,5.1296 5.9814,7.1225c0.3576,0.7178 0.3895,1.4589 0.15,1.9153c-0.0087,0.1154 -0.2926,0.3437 -0.5042,0.4326c-2.5635,1.0727 -14.8036,-3.2183 -18.1937,-6.0989c-4.9643,-4.218 -7.8787,-10.8874 -7.6286,-14.57c0.1028,-1.506 0.741,-2.6736 1.8483,-3.3808z" data-paper-data="{&quot;index&quot;:null}" fill="#ffc93e" stroke="#603813" stroke-width="1.32684" stroke-linecap="butt" stroke-linejoin="miter"/><path d="M248.47799,149.92602c3.4438,-2.9515 8.3618,-2.9476 8.3618,-2.9476" data-paper-data="{&quot;index&quot;:null}" fill="none" stroke="#603813" stroke-width="1.32684" stroke-linecap="round" stroke-linejoin="round"/></g></g></svg>