<svg version="1.1" xmlns="http://www.w3.org/2000/svg" xmlns:xlink="http://www.w3.org/1999/xlink" width="140.94594" height="148.61867" viewBox="0,0,140.94594,148.61867"><g transform="translate(-169.52704,-105.69068)"><g data-paper-data="{&quot;isPaintingLayer&quot;:true}" fill-rule="nonzero" stroke="none" stroke-linecap="butt" stroke-linejoin="miter" stroke-miterlimit="10" stroke-dasharray="" stroke-dashoffset="0" style="mix-blend-mode: normal"><path d="M203.39811,118.28919c1.80279,-0.02426 3.42308,-0.78505 4.57835,-1.99228c0.77618,-0.08637 1.53496,-0.18391 2.26431,-0.31077c6.88049,-1.19696 13.49178,-3.01507 20.25689,-4.2766c1.47392,0.41671 2.95222,0.58263 4.42881,0.56476c3.50328,0.37663 7.14553,0.25337 11.09169,0.13607c1.47353,1.35965 4.59727,0.77636 6.53253,0.74655c1.20348,1.4203 3.00876,2.31179 5.01557,2.2848c0.30035,-0.00405 0.59565,-0.02852 0.88457,-0.07212c0.23144,0.353 0.47357,0.69623 0.72425,1.02824c0,0 0.98582,1.27823 2.26405,0.29241c0.03345,-0.02578 0.06534,-0.05178 0.09576,-0.07796c0.04158,0.04087 0.08304,0.08196 0.12436,0.12328c0,0 0.38046,0.38048 0.76095,0c0.38048,-0.38046 0,-0.76095 0,-0.76095c-0.0057,-0.0057 -0.01139,-0.01139 -0.01709,-0.01707c0.31318,-0.25337 0.11788,-0.64397 0.11788,-0.64397c-0.18411,-0.34671 -0.40952,-0.60327 -0.64924,-0.827c0.04466,-0.01078 0.09186,-0.02794 0.14166,-0.05284c0.48125,-0.24063 0.24063,-0.7219 0.24063,-0.7219c-0.04124,-0.0825 -0.0825,-0.165 -0.12374,-0.24749c1.13721,-1.18079 1.82797,-2.79244 1.8055,-4.56085c0.57318,-0.67528 1.00967,-1.46961 1.26747,-2.33979c0.45252,-0.19048 0.89051,-0.39826 1.31843,-0.61874c0.01851,0.00192 0.0373,0.00291 0.05633,0.00291c0.19425,0 0.36445,-0.10292 0.45904,-0.2572c2.67981,0.31508 5.58901,0.36488 8.46732,0.11177c0.02647,0.02137 0.05359,0.04191 0.08136,0.0616c0.24383,0.32506 0.60725,0.55471 1.02394,0.62445c0.29372,0.43898 0.79678,0.72517 1.3643,0.71753c0.05998,-0.00082 0.11913,-0.00489 0.17733,-0.01203c0.05835,0.0056 0.1176,0.00805 0.17759,0.00725c0.13958,-0.00187 0.27476,-0.02139 0.40351,-0.05645c0.11233,0.17475 0.25737,0.32631 0.42641,0.44613c0.14713,0.19616 0.33783,0.35758 0.55749,0.47008c0.20036,0.34964 0.4166,0.68895 0.64769,1.01698c-0.26258,0.29144 -0.42024,0.67877 -0.41455,1.10193c0.00342,0.25468 0.06567,0.49484 0.1736,0.70763c-0.10219,0.21564 -0.15794,0.45736 -0.15451,0.71207c0.00762,0.5675 0.30724,1.06268 0.75397,1.3445c0.07606,0.38987 0.29217,0.72883 0.59324,0.96328c0.03386,0.85016 0.07707,1.69321 0.11532,2.53788c-0.07057,0.39693 -0.1048,0.80623 -0.09918,1.22427c0.00678,0.50405 0.07113,0.99382 0.18673,1.46316c0.00316,0.2301 0.00489,0.461 0.00489,0.69283v0.53392c0,0 0,0.19631 0.11859,0.35179c-0.4438,0.36454 -0.84172,0.76714 -1.12961,1.27627c0,0 -0.24065,0.48128 0.24063,0.7219c0.48128,0.24065 0.7219,-0.24063 0.7219,-0.24063c0.08984,-0.23916 0.23826,-0.46602 0.42788,-0.68577c0.13859,0.76133 0.81019,1.33376 1.60973,1.323c0.24355,-0.00327 0.47379,-0.06031 0.67957,-0.1597c1.05129,0.70619 2.32065,1.11104 3.68284,1.09272c0.06091,-0.00082 0.1216,-0.00248 0.18211,-0.00497c0.29183,0.49514 0.58366,0.99023 0.87549,1.48535c0.84779,1.43834 2.37039,2.11392 4.04503,2.64285c1.25681,1.57342 2.19306,3.33396 3.62394,5.09122l0.91232,1.35085c0,0 0.77825,1.13405 2.05902,1.41376c0.56526,0.75094 1.12669,1.47953 1.66554,2.17821l0.20875,0.46051c0,0 0.23563,0.45586 0.69818,0.72065c0.58553,1.98879 1.59346,3.72815 2.57275,5.46331c-0.84282,0.70204 -0.37833,1.81945 -0.37833,1.81945c1.17531,2.79706 2.08102,5.84528 2.7753,9.01015c0.1074,2.87638 0.46023,7.18814 1.29655,8.86078c-0.02652,2.71801 -0.20907,8.68559 0.48728,12.40773l0.04175,1.32536c0.1993,0.91001 0.3881,1.8202 0.56205,2.73011c0.09935,1.60897 0.2131,3.22565 0.34956,4.85236c0.24345,2.9021 0.50676,5.77617 0.62064,8.65322c-0.24002,2.71267 -0.81088,5.40225 -1.83131,8.0563c0,0 -0.42979,1.11782 0.41384,1.79801c-0.99451,2.16586 -1.98416,4.1602 -2.78594,6.22503c-0.00387,-0.07942 -0.04746,-0.52607 -0.53769,-0.52607c-0.53808,0 -0.53808,0.53808 -0.53808,0.53808c0,1.23858 -0.02916,2.45319 -0.08405,3.65691c-0.02662,0.11263 -0.05249,0.2258 -0.07759,0.33953c-1.92732,2.76304 -4.14537,5.21214 -5.77423,8.68128c-2.25725,4.80751 -3.44284,8.63111 -5.59415,11.93648l-0.69868,0.46688c-3.77507,5.29285 -10.31879,6.45895 -16.13508,7.66318c-0.04339,-0.14102 -0.08708,-0.27924 -0.13103,-0.41445c0,0 -0.17016,-0.51046 -0.68062,-0.3403c-0.51046,0.17016 -0.3403,0.68062 -0.3403,0.68062c0.04255,0.1238 0.08476,0.25076 0.1266,0.38059c-0.26583,0.14778 -0.56868,0.39516 -0.71273,0.79278c-1.15075,0.86583 -2.00155,2.10684 -2.37274,3.53851c-0.7266,0.58661 -1.42719,1.28544 -2.12458,1.99673c-2.10551,0.6258 -4.5937,1.17389 -6.49885,1.87394c-0.34316,-0.10927 -0.6863,-0.21857 -1.02947,-0.32784l-2.19823,-0.06963c-0.15951,-0.09203 -0.32119,-0.18071 -0.48489,-0.26598c-0.48283,-0.25152 -0.98339,-0.47338 -1.49931,-0.66319c-0.53799,-0.63161 -1.19528,-1.15798 -1.93647,-1.54451c-0.52815,-1.11444 -0.78731,-2.42779 -0.80625,-3.83516c0,0 -0.00105,-0.07815 -0.03213,-0.17449c0.01668,-0.13714 0.02514,-0.25686 0.02501,-0.35511c0,0 -0.00723,-0.53801 -0.54526,-0.53078c-0.53801,0.00723 -0.53078,0.54526 -0.53078,0.54526c0.00581,0.2012 -0.10445,0.73813 -0.29131,1.38275c-1.45293,-0.70165 -2.15514,0.75128 -2.15514,0.75128l0.06965,0.07912c-2.99949,1.27365 -5.79569,3.93682 -8.88192,5.13896c-2.7693,-0.06446 -5.82113,0.24241 -8.4116,0.82379c-1.82683,-0.08174 -3.69847,-0.45407 -5.64288,-0.42792c0,0 -0.53801,0.00723 -0.53078,0.54526c0.00723,0.53801 0.54526,0.53078 0.54526,0.53078c0.22984,-0.00308 0.45711,-0.00136 0.68215,0.00428c-0.27341,0.05792 -0.54033,0.13312 -0.79962,0.22436c-2.77899,-0.48795 -5.50003,-1.06132 -8.40632,-1.16108c-1.16491,-1.04638 -2.7113,-1.67438 -4.40044,-1.65165c-0.63549,0.00854 -1.24833,0.10861 -1.8261,0.2875c-1.18049,-1.12959 -2.78777,-1.81458 -4.55059,-1.79086c-0.48519,0.00652 -0.95715,0.06638 -1.41038,0.17397c-1.16898,-1.06601 -2.72993,-1.70738 -4.43669,-1.68441c-0.77278,0.0104 -1.5121,0.15615 -2.19556,0.41438c-0.05527,-0.02585 -0.11069,-0.05176 -0.16616,-0.07776c-1.4632,-2.09636 -4.04955,-2.70609 -4.04955,-2.70609l-2.90233,-0.67946c-3.68381,-1.87745 -7.10095,-3.78559 -9.15347,-5.31993c-0.6229,-1.52376 -1.81062,-2.75398 -3.29971,-3.43415c-0.09076,-0.19162 -0.18159,-0.30939 -0.18159,-0.30939l-1.08388,-1.40539c-0.94374,-1.20339 -1.69212,-1.96765 -2.29881,-2.73992c-2.76835,-6.53692 -3.91206,-13.19713 -6.05136,-20.0352l-0.61252,-1.76736c0,0 -0.40465,-1.16164 -1.36774,-2.29424c-0.5418,-5.45662 -0.59591,-10.80211 -0.6698,-16.29483l-0.07837,-5.82572c0,0 -0.0192,-1.42682 -0.7103,-2.92993c0.0862,-0.80292 0.15647,-1.62651 0.20604,-2.44994c0.07837,0.05706 0.18557,0.09556 0.33212,0.09358c0.53801,-0.00723 0.53078,-0.54526 0.53078,-0.54526c-0.03377,-2.51079 -0.08022,-5.96295 -0.11399,-8.47373c0,0 -0.00723,-0.53801 -0.54526,-0.53078c-0.04246,0.00056 -0.08153,0.00446 -0.11747,0.01111c0.20628,-0.91716 0.19719,-1.59287 0.19719,-1.59287c-0.11392,-5.83902 1.3241,-9.56142 2.32618,-15.22589c0.58672,-3.31665 0.74209,-5.76709 1.21543,-8.21796c0.764,-0.20146 1.0769,-1.01528 1.0769,-1.01528c0.93901,-2.44224 2.12021,-4.64641 3.14699,-7.00742c3.42046,-1.09163 4.15439,-5.03645 4.15439,-5.03645c0.11485,-1.08315 0.48293,-2.13383 1.01251,-3.11939c0.81374,0.35231 1.5981,-0.25262 1.5981,-0.25262c1.40233,-1.11418 2.03026,-2.38626 3.3069,-3.36712c0.73204,0.30675 1.47753,-0.1543 1.47753,-0.1543c3.46195,-2.15376 7.02474,-4.07717 10.27646,-6.57265l1.57348,-0.97075c0.61775,0.18635 1.27416,0.28251 1.95366,0.27336z" data-paper-data="{&quot;index&quot;:null}" fill="#ffffff" stroke-width="0"/><path d="M169.52704,172.17164c0.05452,-0.1139 0.10512,-0.22771 0.15202,-0.34088c0.00458,0.34002 0.00915,0.68002 0.01373,1.02004c-0.04985,-0.23647 -0.10499,-0.46324 -0.16573,-0.67914z" data-paper-data="{&quot;index&quot;:null}" fill="#ffffff" stroke-width="0"/><path d="M222.63606,254.30931c-0.12197,-0.23111 -0.25754,-0.45392 -0.40562,-0.6673c0.50497,0.03543 1.00534,0.0836 1.50239,0.14147c-0.38416,0.14121 -0.75109,0.31783 -1.09677,0.52587z" data-paper-data="{&quot;index&quot;:null}" fill="#ffffff" stroke-width="0"/><path d="M255.61031,248.45596c-0.0797,-0.02094 -0.15998,-0.04038 -0.24086,-0.05833l0.14659,-0.23271c0.02994,0.09787 0.06138,0.19489 0.09429,0.29101z" data-paper-data="{&quot;index&quot;:null}" fill="#ffffff" stroke-width="0"/><path d="M263.40885,119.62534c-0.4898,1.53812 -2.02794,1.0483 -2.02794,1.0483l-2.95255,-0.94452c-8.26376,-3.97528 -15.73717,-4.38632 -24.9325,-4.26263c-9.2548,0.12449 -19.17133,1.46008 -27.64085,4.96985c-2.41215,0.99959 -6.12758,2.12918 -8.12168,3.70415c-2.5802,2.03788 -6.42769,5.93342 -9.68757,5.97726c-8.74559,10.06982 -14.71665,25.11721 -14.53851,38.35978c0,0 0.02172,1.61407 -1.59236,1.63579c-1.61407,0.02172 -1.63579,-1.59236 -1.63579,-1.59236c-0.00254,-0.18848 -0.00387,-0.37758 -0.00405,-0.56724c0.05701,-5.27828 1.38709,-8.89012 2.33066,-14.2238c0.19728,-1.11513 0.34579,-2.13233 0.474,-3.08455c1.48743,-4.76093 3.53005,-9.42017 6.03933,-13.6342c2.50515,-1.46671 3.08033,-4.55836 3.08033,-4.55836c0.00267,-0.0251 0.00547,-0.05017 0.00839,-0.07522c0.9754,-1.30604 2.00132,-2.54471 3.07426,-3.70228c0.32541,-0.30117 0.60899,-0.60953 0.87667,-0.91697c0.20232,-0.20507 0.40618,-0.40724 0.61158,-0.60643c2.69466,-0.03627 5.45595,-2.62787 7.79927,-4.60256c1.36604,-0.83455 2.71721,-1.69274 4.02831,-2.62376c1.29508,-0.61461 2.70226,-1.16145 4.01593,-1.67281c0.25726,0.02761 0.51898,0.0401 0.78421,0.03652c1.80279,-0.02426 3.42308,-0.78505 4.57835,-1.99228c0.77618,-0.08637 1.53496,-0.18391 2.26431,-0.31077c5.40217,-0.9398 10.63837,-2.26248 15.91335,-3.39805c2.45392,-0.20608 4.8981,-0.31764 7.29836,-0.34992c0.03736,-0.0005 0.07471,-0.00101 0.11201,-0.00149c0.45405,0.03119 0.90816,0.04307 1.36206,0.03758c2.71859,0.29226 5.52087,0.2835 8.48392,0.21011c1.09234,0.08966 2.17294,0.20634 3.24567,0.35616c0.76628,0.37528 1.75412,0.47116 2.7611,0.46567c1.59595,0.31794 3.18157,0.72261 4.76997,1.2348c0.7032,0.41761 1.49204,0.70533 2.33296,0.83062c0.95091,0.37116 1.90502,0.78417 2.86516,1.24343c0.24631,0.21857 0.69274,0.51313 1.25163,0.43601l1.72367,0.54623c0,0 1.53812,0.4898 1.0483,2.02792z" data-paper-data="{&quot;index&quot;:null}" fill="#000000" stroke-width="0.5"/><path d="M245.04904,152.40825c0,0 0.00865,0.64326 -0.39107,1.12309c0.19771,0.10886 0.39415,0.22001 0.58921,0.33352c3.43146,1.9966 6.07437,1.41488 8.21946,5.26164l0.1928,1.66356c0,0 0.02172,1.61407 -1.59236,1.63579c-1.61407,0.02172 -1.63579,-1.59236 -1.63579,-1.59236l0.16741,-0.22448c-1.32476,-2.92405 -4.43776,-2.47762 -7.01174,-3.9753c-5.45767,-3.17557 -12.22515,-4.31536 -19.03595,-4.22374c0,0 -1.61407,0.02172 -1.63579,-1.59236c-0.02172,-1.61407 1.59236,-1.63579 1.59236,-1.63579c6.04,-0.08125 12.03043,0.75442 17.30934,2.97698l-0.02146,-1.59516c-0.07632,-5.67366 0.27164,-10.69392 1.4336,-15.86983c-6.34154,-1.85935 -12.49044,-2.19492 -19.88876,-2.09539c0,0 -1.61407,0.02172 -1.63579,-1.59236c-0.02172,-1.61407 1.59236,-1.63579 1.59236,-1.63579c7.65302,-0.10294 14.12064,0.28404 20.72861,2.19829c0.1303,-0.45704 0.26732,-0.91645 0.41128,-1.37881c0,0 0.4898,-1.53812 2.02792,-1.0483c1.53812,0.4898 1.0483,2.02794 1.0483,2.02794c-0.15273,0.46726 -0.29682,0.93083 -0.4327,1.39135c1.74769,0.62959 3.51888,1.3745 5.3373,2.25333l1.90072,0.9186c0,0 1.45338,0.70242 0.75096,2.15581c-0.70242,1.45338 -2.15581,0.75096 -2.15581,0.75096l-1.90072,-0.91862c-1.61935,-0.78264 -3.19416,-1.45173 -4.74451,-2.02243c-1.07531,4.8281 -1.31637,9.4882 -1.24461,14.82182l0.0254,1.88802z" data-paper-data="{&quot;index&quot;:null}" fill="#000000" stroke-width="0.5"/><path d="M254.52697,190.24535c-1.12595,1.15669 -2.28264,0.03071 -2.28264,0.03071l-0.53315,-0.63461c-11.67433,-5.64217 -19.71552,-11.83873 -33.42542,-11.6543c0,0 -1.61407,0.02172 -1.63579,-1.59236c-0.02172,-1.61407 1.59236,-1.63579 1.59236,-1.63579c14.24829,-0.19166 22.75588,6.1192 34.87368,11.9757l1.38027,1.22804c0,0 1.15669,1.12595 0.03071,2.28264z" data-paper-data="{&quot;index&quot;:null}" fill="#000000" stroke-width="0.5"/><path d="M241.09089,209.11245c0.00719,0.53366 0.01444,1.07241 0.02174,1.61558c2.07749,0.32396 4.08943,0.4923 5.94538,0.46651l0.94402,-0.0127c0,0 1.61407,-0.02172 1.63579,1.59236c0.02172,1.61407 -1.59236,1.63579 -1.59236,1.63579l-0.94402,0.0127c-1.8578,0.02423 -3.86682,-0.13314 -5.945,-0.43851c0.07193,5.34765 0.14743,10.96072 0.21753,16.17103c0.71121,-0.00792 1.43104,-0.01978 2.16196,-0.02962l2.83204,-0.0381c0,0 1.61407,-0.02172 1.63579,1.59236c0.02172,1.61407 -1.59236,1.63579 -1.59236,1.63579l-2.83204,0.0381c-6.25902,0.0842 -17.79864,1.27199 -21.33072,-4.38217c0,0 -0.74127,-1.43397 0.6927,-2.17522c1.43397,-0.74127 2.17522,0.6927 2.17522,0.6927c0.63433,2.13809 4.33523,1.38724 6.50593,1.89581c2.1805,0.51089 4.32774,0.69999 6.52257,0.75761c-0.07505,-5.5798 -0.15012,-11.15959 -0.22517,-16.73939c-6.19404,-1.30464 -12.61721,-3.71754 -17.24193,-6.40843c0,0 -1.39523,-0.81183 -0.58342,-2.20705c0.81183,-1.39523 2.20705,-0.58342 2.20705,-0.58342c4.20215,2.44503 9.95484,4.65308 15.57398,5.90759c-0.00428,-0.31863 -0.00857,-0.63723 -0.01285,-0.95586c0,0 -0.02172,-1.61407 1.59236,-1.63579c1.61407,-0.02172 1.63579,1.59236 1.63579,1.59236z" data-paper-data="{&quot;index&quot;:null}" fill="#000000" stroke-width="0.5"/><path d="M267.00736,247.79256c4.05242,-1.08465 3.96671,-3.4106 5.31424,-6.48669c-4.03016,-1.69825 -7.5544,-4.55687 -11.50467,-6.46603c0,0 -1.45338,-0.70242 -0.75096,-2.15581c0.70242,-1.45338 2.15581,-0.75096 2.15581,-0.75096c6.31771,3.0533 12.17696,8.73672 19.77548,7.16019c3.05254,-0.63334 4.65915,-3.75174 6.90649,-5.49646c2.42863,-1.88548 4.64169,-3.15168 6.02717,-6.10267c1.64406,-3.32675 4.08674,-5.83659 5.49095,-9.41151c1.3796,-3.51238 1.15527,-7.10027 2.73848,-10.52705l-0.17339,-0.21988c0,0 -0.02172,-1.61407 1.59236,-1.63579c0.11416,-0.00153 0.22035,0.00512 0.31914,0.01881c0.02804,-2.41972 1.25064,-4.11664 1.80113,-6.35731c1.20647,-4.9108 0.4011,-14.51505 -1.22457,-19.18188c-0.24061,-11.91201 -1.15721,-23.38973 -4.63963,-34.61206c-1.22464,-3.94646 -4.35821,-6.61544 -6.19828,-10.09956c-0.48089,-1.06147 -1.73079,-1.5619 -2.56212,-2.37853c-2.01993,-1.98425 -2.38301,-3.90836 -5.30393,-5.28506c-8.26206,-3.89409 -18.10239,-0.5365 -26.6777,-0.42114c0,0 -1.61407,0.02172 -1.63579,-1.59236c-0.02172,-1.61407 1.59236,-1.63579 1.59236,-1.63579c2.0551,-0.02764 4.16769,-0.22311 6.30813,-0.46003c-1.96038,-2.61184 -3.77365,-6.90914 -3.83714,-10.67478c0.90252,-1.12645 1.43466,-2.56079 1.4149,-4.11647c0.48166,-0.56752 0.86682,-1.21908 1.13052,-1.92909c0.82343,-0.56776 1.87177,-0.95297 3.02854,-1.17425c1.88707,0.16928 3.86719,0.20998 5.8549,0.10968c2.20316,0.45945 4.15207,1.36647 5.13892,2.60811c0.34026,0.42809 0.63052,0.89831 0.87827,1.4008c-0.01268,0.0851 -0.01868,0.17236 -0.01748,0.26118c0.00342,0.25468 0.06567,0.49484 0.1736,0.70763c-0.10219,0.21564 -0.15794,0.45736 -0.15451,0.71207c0.00762,0.5675 0.30724,1.06268 0.75397,1.3445c0.05396,0.27651 0.17836,0.52746 0.35358,0.73363c0.16405,1.03956 0.25016,2.11067 0.29734,3.16218c-0.03114,0.27184 -0.04535,0.54873 -0.04156,0.82956c0.00465,0.34463 0.0362,0.68265 0.09266,1.01199c0.01059,0.72496 0.01306,1.42422 0.02187,2.07882l-0.19603,0.29706c-0.28475,0.27386 -0.5379,0.57619 -0.73794,0.92994c0,0 -0.06248,0.12494 -0.06009,0.27935l-0.3748,0.56797c2.77231,0.20406 5.48514,0.79401 8.07272,2.05037c0.20671,0.10036 0.40343,0.20376 0.59117,0.30995c0.06371,0.10811 0.12744,0.21622 0.19117,0.32433c0.61926,1.05069 1.59866,1.69438 2.73435,2.17118c0.84671,0.99408 1.59023,2.05463 2.65988,3.08521c0.38249,0.36852 0.79936,0.7128 1.21097,1.06179c0.32934,0.46972 0.67862,0.9429 1.06373,1.41587l0.91232,1.35085c0,0 0.28518,0.41557 0.79437,0.80561c1.87412,3.01948 4.45875,5.58186 5.60676,9.18877c0.11102,0.34878 0.21966,0.69823 0.32594,1.04828c-0.10189,0.53033 0.09886,1.01324 0.09886,1.01324c0.24078,0.57301 0.47023,1.15654 0.68887,1.74945c1.93698,7.25254 2.9344,14.74711 3.3626,22.32368c0.02329,1.11366 0.06924,2.24788 0.15238,3.3255c0.06571,1.85081 0.10086,3.70508 0.1108,5.56053c0.40864,1.17307 0.75793,2.61162 1.03829,4.19636c0.04963,0.67539 0.10262,1.35233 0.15955,2.03102c0.23811,2.8385 0.49522,5.65022 0.61291,8.46409c-0.00321,0.13293 -0.00697,0.26525 -0.01132,0.39691c-0.25044,2.64227 -0.81792,5.26231 -1.81228,7.84856c0,0 -0.21514,0.55958 -0.04219,1.12781c-0.29652,0.85061 -0.52389,1.74166 -0.54559,2.82108c-0.43283,0.92674 -0.85235,1.83568 -1.24231,2.74827c-0.2137,0.27097 -0.6003,0.62552 -1.16549,0.63659c-0.02378,0.05998 -0.04707,0.12014 -0.06982,0.18043c-0.38242,0.0922 -0.38242,0.52073 -0.38242,0.52073c0,0.225 -0.00097,0.44923 -0.00286,0.67272c-0.37941,1.38012 -0.57576,2.81736 -0.82554,4.25525c-1.75688,2.40121 -3.66367,4.67486 -5.10749,7.74992c-1.93061,4.11184 -3.07727,7.50395 -4.71474,10.46765c-4.78334,5.50711 -12.50019,10.09868 -19.11184,8.58712c-0.02083,-0.00476 -0.04165,-0.00956 -0.06244,-0.0144l-0.00979,0.11035c-0.5932,1.15342 -1.0509,2.26256 -1.5415,3.28607c-0.38369,0.50719 -0.69412,1.07258 -0.91572,1.68024c-0.73079,1.13814 -1.66485,2.10519 -3.13065,2.82037c-1.3131,0.36598 -2.71969,0.71454 -4.01083,1.09535c-5.6745,0.61676 -10.12743,-2.64724 -9.36823,-7.96183c-0.33804,0.25081 -0.68036,0.51136 -1.02693,0.77909c-0.08629,0.03528 -0.14834,0.08947 -0.193,0.14948c-1.8855,1.46406 -3.89513,3.12523 -6.02366,4.57943c-0.25318,0.16749 -0.50629,0.33688 -0.75968,0.50626c-1.67595,1.08771 -3.42336,2.02159 -5.2398,2.61201c-2.59053,-0.00678 -5.37225,0.29594 -7.76147,0.83214c-1.82683,-0.08174 -3.69845,-0.45407 -5.64286,-0.42792c0,0 -0.30606,0.00411 -0.4534,0.23697c-1.52284,-0.07727 -2.99058,-0.13768 -4.33828,-0.11956c-2.76556,-0.01567 -4.2274,-1.42982 -6.89231,-1.8165c-1.78249,-0.25864 -3.61012,-0.58401 -5.45899,-0.97846c-0.42331,-0.14218 -0.86602,-0.24162 -1.32293,-0.29329c-1.34994,-0.31066 -2.70815,-0.65811 -4.06539,-1.04326c-0.44729,-0.18942 -0.92015,-0.3298 -1.41176,-0.41449c-9.86827,-2.99533 -19.51934,-8.00656 -25.42071,-15.38927c-1.27868,-2.46128 -2.43544,-5.03496 -3.46835,-7.68849c-1.29577,-4.36926 -2.27347,-8.80017 -3.68386,-13.3084l-0.61252,-1.76736c0,0 -0.05988,-0.17182 -0.18833,-0.44774c-1.13964,-5.752 -1.75557,-11.58202 -1.83141,-17.21946c0,0 -0.02172,-1.61407 1.59236,-1.63579c1.61407,-0.02172 1.63579,1.59236 1.63579,1.59236c0.17591,13.07604 3.32601,27.16201 9.27534,38.73424c7.36414,9.85151 23.32407,14.73331 35.43497,16.66597c2.51384,0.40117 3.9264,1.88445 6.37466,1.78178c4.92664,-0.06627 11.89981,1.08349 16.62196,-0.18043c3.51068,-0.93965 6.78564,-4.00885 9.95183,-5.66825c2.21622,-1.16151 6.31237,-3.3255 6.7706,-5.03767l2.37569,-0.92437c0,0 1.61407,-0.02172 1.63579,1.59236c0.02172,1.61407 -1.59236,1.63579 -1.59236,1.63579l0.48765,-0.89897c-0.2018,0.34325 -0.46406,0.63482 -0.76303,0.89415c0.07212,0.53543 -0.15557,1.00659 -0.15557,1.00659c-2.7399,5.32763 1.86034,7.42627 6.76505,6.1135zM269.6683,122.61c0,0 0.26665,0.25957 0.41925,0.65746c2.51718,-0.28238 5.04895,-0.52202 7.54859,-0.51963c-0.9214,-1.07714 0.10824,-2.13485 0.10824,-2.13485l0.47391,0.19097c-0.03726,-2.76818 0.35024,-10.41068 -2.93739,-11.68755c-10.84957,-4.21382 -11.02438,8.31582 -5.61262,13.49359z" data-paper-data="{&quot;index&quot;:null}" fill="#000000" stroke-width="0.5"/><path d="M268.49043,221.01827c0.03196,2.37715 -1.86917,4.33013 -4.24632,4.36211c-2.37715,0.03196 -4.33013,-1.86917 -4.36211,-4.24632c-0.03196,-2.37715 1.86917,-4.33013 4.24632,-4.36211c2.37715,-0.03196 4.33013,1.86917 4.36211,4.24632z" data-paper-data="{&quot;index&quot;:null}" fill="#000000" stroke-width="0.5"/><path d="M270.33194,147.34721c0.03196,2.37715 -1.86917,4.33013 -4.24632,4.36211c-2.37715,0.03196 -4.33013,-1.86917 -4.36211,-4.24632c-0.03196,-2.37715 1.86917,-4.33013 4.24632,-4.36211c2.37715,-0.03196 4.33013,1.86917 4.36211,4.24632z" data-paper-data="{&quot;index&quot;:null}" fill="#000000" stroke-width="0.5"/><path d="M273.90779,182.23386c0.01999,1.48573 -1.1682,2.70632 -2.65394,2.72632c-1.48573,0.01999 -2.70632,-1.1682 -2.72632,-2.65394c-0.01999,-1.48573 1.1682,-2.70632 2.65394,-2.72632c1.48573,-0.01999 2.70632,1.1682 2.72632,2.65394z" data-paper-data="{&quot;index&quot;:null}" fill="#000000" stroke-width="0.5"/><path d="M280.19167,218.30241c1.9251,-3.36123 4.77877,-5.73026 7.07709,-8.86672c2.1464,-2.92913 3.40914,-6.56613 5.53709,-9.51631c0.87463,-1.21258 2.20271,-1.70327 2.52745,-3.23771c0.83858,-3.9623 -0.16859,-9.32237 -0.22334,-13.39264c0.02148,-12.9619 -6.61983,-26.61246 -12.61805,-38.216c0,0 -0.74127,-1.43397 0.6927,-2.17522c1.43397,-0.74127 2.17522,0.6927 2.17522,0.6927c6.32275,12.23133 12.63135,26.0254 12.97828,39.6551c0.05686,4.22729 1.171,10.04304 0.14698,14.13549c-0.43186,1.72595 -1.97848,2.95911 -3.03502,4.39058c-2.15381,2.91817 -3.40195,6.57665 -5.53709,9.51631c-2.36557,3.25695 -5.55567,5.6158 -7.29382,9.318l-2.37569,0.92437c0,0 -1.61407,0.02172 -1.63579,-1.59236c-0.02081,-1.54598 1.45907,-1.63112 1.58399,-1.63555z" data-paper-data="{&quot;index&quot;:null}" fill="#000000" stroke-width="0.5"/><path d="M287.38039,196.56375c0,0 -1.90638,5.98641 -7.77912,4.8057c-1.1922,1.18183 -2.49503,1.72339 -2.49503,1.72339l-4.39084,1.75578c-6.42403,1.64408 -11.94115,1.77472 -18.53423,1.86342c0,0 -2.6238,0.0353 -4.67897,-1.54436c-3.53789,3.18766 -7.05989,1.42792 -8.60838,0.34045c-8.59941,-2.3255 -16.7514,-6.20446 -25.40827,-8.25971c4.4679,9.7428 7.86704,19.91315 8.01213,30.6977c-2.02041,4.228 -1.95769,10.42142 -6.06118,12.68404c-4.05584,2.23637 -9.30332,-0.57288 -13.78516,-1.74095c-8.22078,-2.14251 -17.21128,-11.70079 -20.80674,-18.86779c-6.8543,-13.66304 -10.33354,-35.22013 -7.72174,-50.38328c1.39047,-8.0725 5.36517,-17.03666 7.63158,-24.98784c0,0 0.95392,-3.34244 3.74608,-5.31848c1.94101,-6.8156 7.00468,-16.77074 16.26203,-14.66444c2.16233,0.49199 3.89386,1.83339 5.36235,3.5807c1.05936,-0.29986 2.29939,-0.42549 3.75049,-0.30005c9.11331,0.78766 8.32564,9.90097 8.32564,9.90097c-0.4946,5.61003 0.01322,11.30752 -0.29254,16.90148c9.78152,0.93121 16.83553,5.6474 26.3148,9.01325l3.6738,1.41073c0,0 0.24192,0.09302 0.61474,0.28981c1.99195,-1.52783 4.49876,-1.56156 4.49876,-1.56156c0.55798,0.0068 1.09627,-0.00727 1.61853,-0.0402c-1.08461,-1.61095 -1.73389,-3.96916 -0.05835,-6.99513c3.38847,-6.11948 9.50794,-2.73101 9.50794,-2.73101l4.95518,2.74377c0,0 1.68385,0.93238 2.7959,2.70223c2.03054,0.36055 5.70657,1.71179 5.7746,6.76941c0.01517,1.12852 -0.15415,2.07738 -0.44888,2.87521c0.68107,-0.32846 1.49027,-0.57654 2.45125,-0.70981c6.92868,-0.96092 7.88958,5.96775 7.88958,5.96775c1.05721,7.74938 1.02768,12.75128 -1.5248,20.20715l-0.59102,1.87166zM275.63901,176.40674c0,0 -0.26396,-1.90324 0.48233,-3.85305c-1.02867,0.51827 -2.05334,0.73376 -2.70837,0.82323c-6.30553,2.46133 -11.20802,4.30565 -18.21416,4.51443c0,0 -1.57525,0.02118 -3.24065,-0.7041c-2.95332,2.63244 -7.08158,1.0452 -7.08158,1.0452l-3.38882,-1.3047c-8.50133,-3.09111 -15.08579,-8.26354 -24.20462,-8.35747c-0.85862,3.49415 -1.56029,6.98703 -1.39932,10.58303l-0.83722,3.80152c10.61385,2.1608 20.23106,6.98477 30.80146,9.38433l3.41467,2.13228c2.02323,-1.7117 4.73035,-1.74812 4.73035,-1.74812c5.45856,-0.07341 9.88007,0.05215 15.14711,-1.40011l2.59617,-1.14866c0,0 1.4163,-0.58874 3.19817,-0.55166c1.91441,-5.10381 1.48642,-7.68285 0.70445,-13.21618z" data-paper-data="{&quot;index&quot;:null}" fill="#ffffff" stroke-width="0.5"/></g></g></svg>