<svg version="1.1" xmlns="http://www.w3.org/2000/svg" xmlns:xlink="http://www.w3.org/1999/xlink" width="69.05109" height="65.48618" viewBox="0,0,69.05109,65.48618"><g transform="translate(-205.47446,-147.25692)"><g data-paper-data="{&quot;isPaintingLayer&quot;:true}" fill-rule="nonzero" stroke="none" stroke-linecap="butt" stroke-linejoin="miter" stroke-miterlimit="10" stroke-dasharray="" stroke-dashoffset="0" style="mix-blend-mode: normal"><path d="M268.67204,162.99407c0.01127,0.83761 0.36475,1.59043 0.92565,2.12719c0.04013,0.36063 0.08545,0.71317 0.14439,1.05204c0.55613,3.19681 1.40086,6.26854 1.98699,9.41174c-0.19361,0.68481 -0.2707,1.37166 -0.2624,2.05771c-0.17499,1.62769 -0.11772,3.31995 -0.06322,5.15341c-0.63172,0.68463 -0.36071,2.13598 -0.34686,3.03514c-0.6599,0.55916 -1.0741,1.39793 -1.06156,2.33033c0.00188,0.13955 0.01325,0.27675 0.03351,0.41099c-0.16401,0.10753 -0.32348,0.22003 -0.47774,0.3365c0,0 -0.59389,0.45803 -0.13586,1.05192c0.01198,0.01554 0.02406,0.03036 0.03622,0.04449c-0.01899,0.01932 -0.03808,0.03858 -0.05728,0.05778c0,0 -0.17678,0.17677 0,0.35355c0.17677,0.17678 0.35355,0 0.35355,0c0.00265,-0.00265 0.00529,-0.00529 0.00793,-0.00794c0.11772,0.14551 0.2992,0.05477 0.2992,0.05477c0.16109,-0.08554 0.28029,-0.19027 0.38424,-0.30165c0.00501,0.02075 0.01298,0.04268 0.02455,0.06582c0.1118,0.2236 0.33541,0.1118 0.33541,0.1118c0.03833,-0.01916 0.07666,-0.03833 0.11499,-0.05749c0.54862,0.52837 1.29742,0.84931 2.11906,0.83887c0.31375,0.26631 0.68281,0.46911 1.08711,0.58889c0.0885,0.21025 0.18504,0.41375 0.28748,0.61257c-0.00089,0.0086 -0.00135,0.01733 -0.00135,0.02617c0,0.09025 0.04782,0.16933 0.1195,0.21328c-0.14639,1.24509 -0.16953,2.59676 -0.05193,3.93408c-0.00993,0.0123 -0.01947,0.0249 -0.02862,0.0378c-0.15103,0.11329 -0.25773,0.28214 -0.29013,0.47574c-0.20396,0.13647 -0.33693,0.3702 -0.33338,0.63388c0.00038,0.02787 0.00227,0.05535 0.00559,0.08239c-0.0026,0.02711 -0.00374,0.05464 -0.00337,0.08251c0.00087,0.06485 0.00994,0.12766 0.02623,0.18748c-0.08119,0.05219 -0.15161,0.11958 -0.20728,0.19812c-0.09114,0.06836 -0.16614,0.15696 -0.21841,0.25902c-0.16245,0.09309 -0.3201,0.19356 -0.47251,0.30093c-0.13541,-0.122 -0.31537,-0.19525 -0.51198,-0.19261c-0.11833,0.00159 -0.22991,0.03051 -0.32878,0.08066c-0.10019,-0.04748 -0.2125,-0.07338 -0.33084,-0.07179c-0.26367,0.00354 -0.49374,0.14275 -0.62468,0.35031c-0.18114,0.03534 -0.33863,0.13575 -0.44756,0.27563c-0.395,0.01573 -0.7867,0.03581 -1.17915,0.05358c-0.18442,-0.03279 -0.37459,-0.04869 -0.56882,-0.04608c-0.23419,0.00315 -0.46175,0.03305 -0.67981,0.08676c-0.10691,0.00147 -0.21419,0.00227 -0.3219,0.00227h-0.24807c0,0 -0.09121,0 -0.16345,0.0551c-0.16937,-0.2062 -0.35643,-0.39108 -0.59298,-0.52484c0,0 -0.22361,-0.11181 -0.33541,0.1118c-0.11181,0.22361 0.1118,0.33541 0.1118,0.33541c0.11112,0.04174 0.21652,0.1107 0.31862,0.1988c-0.35373,0.06439 -0.61969,0.37643 -0.61469,0.74791c0.00152,0.11316 0.02802,0.22013 0.0742,0.31574c-0.32811,0.48845 -0.51621,1.07822 -0.5077,1.71112c0.00038,0.0283 0.00115,0.0565 0.00231,0.08461c-0.23005,0.13559 -0.46008,0.27118 -0.69012,0.40677c-0.66828,0.3939 -0.98217,1.10133 -1.22792,1.8794c-0.73104,0.58394 -1.54902,1.01894 -2.36548,1.68375l-0.62763,0.42388c0,0 -0.5269,0.36159 -0.65686,0.95666c-0.3489,0.26263 -0.68742,0.52348 -1.01204,0.77384l-0.21396,0.09699c0,0 -0.2118,0.10948 -0.33483,0.32439c-0.92403,0.27205 -1.73217,0.74035 -2.53836,1.19535c-0.32618,-0.39159 -0.84535,-0.17578 -0.84535,-0.17578c-1.29957,0.54607 -2.71583,0.96688 -4.18629,1.28946c-1.33642,0.0499 -3.33975,0.21383 -4.11689,0.6024c-1.26284,-0.01232 -4.03549,-0.09714 -5.76487,0.2264l-0.61579,0.0194c-0.42281,0.0926 -0.8457,0.18032 -1.26846,0.26114c-0.74756,0.04616 -1.4987,0.09901 -2.2545,0.16241c-1.34837,0.11311 -2.68372,0.23545 -4.02045,0.28836c-1.26036,-0.11152 -2.50999,-0.37675 -3.74311,-0.85086c0,0 -0.51936,-0.19969 -0.83539,0.19228c-1.0063,-0.46207 -1.93291,-0.92188 -2.89227,-1.2944c0.0369,-0.0018 0.24442,-0.02205 0.24442,-0.24982c0,-0.25 -0.25,-0.25 -0.25,-0.25c-0.57547,0 -1.1398,-0.01355 -1.69907,-0.03905c-0.05233,-0.01237 -0.10491,-0.02439 -0.15775,-0.03605c-1.28376,-0.89547 -2.42166,-1.92602 -4.03349,-2.68282c-2.23366,-1.04876 -4.01018,-1.59961 -5.54592,-2.59915l-0.21692,-0.32462c-2.45916,-1.75397 -3.00095,-4.79431 -3.56046,-7.49667c0.06552,-0.02016 0.12974,-0.04046 0.19256,-0.06088c0,0 0.23717,-0.07906 0.15811,-0.31623c-0.07906,-0.23717 -0.31623,-0.15811 -0.31623,-0.15811c-0.05752,0.01977 -0.11651,0.03938 -0.17683,0.05882c-0.06866,-0.12351 -0.1836,-0.26422 -0.36834,-0.33115c-0.40228,-0.53466 -0.97888,-0.92996 -1.64406,-1.10242c-0.27255,-0.33759 -0.59724,-0.6631 -0.92772,-0.98712c-0.29076,-0.97826 -0.54541,-2.13432 -0.87067,-3.01949c0.05077,-0.15944 0.10155,-0.31887 0.15232,-0.47831l0.03235,-1.02134c0.04276,-0.07411 0.08396,-0.14923 0.12358,-0.22529c0.11686,-0.22433 0.21994,-0.4569 0.30813,-0.69661c0.29346,-0.24996 0.53802,-0.55535 0.71761,-0.89972c0.51779,-0.24539 1.128,-0.3658 1.78189,-0.3746c0,0 0.03631,-0.00049 0.08107,-0.01493c0.06372,0.00775 0.11934,0.01168 0.16499,0.01162c0,0 0.24997,-0.00336 0.24661,-0.25334c-0.00336,-0.24997 -0.25334,-0.24661 -0.25334,-0.24661c-0.09348,0.0027 -0.34295,-0.04853 -0.64245,-0.13535c0.326,-0.67506 -0.34906,-1.00132 -0.34906,-1.00132l-0.03676,0.03236c-0.59176,-1.39362 -1.82912,-2.69279 -2.38766,-4.12671c0.02995,-1.28667 -0.11263,-2.70461 -0.38275,-3.90819c0.03798,-0.84878 0.21097,-1.71838 0.19882,-2.62179c0,0 -0.00336,-0.24997 -0.25334,-0.24661c-0.24997,0.00336 -0.24661,0.25334 -0.24661,0.25334c0.00143,0.10679 0.00063,0.21238 -0.00199,0.31694c-0.02691,-0.12703 -0.06185,-0.25105 -0.10424,-0.37152c0.22671,-1.29117 0.49311,-2.55542 0.53946,-3.90574c0.48617,-0.54124 0.77795,-1.25972 0.76739,-2.04453c-0.00397,-0.29526 -0.05046,-0.58 -0.13358,-0.84844c0.52483,-0.54848 0.84309,-1.29525 0.83207,-2.11429c-0.00303,-0.22543 -0.03084,-0.44471 -0.08083,-0.65529c0.49529,-0.54313 0.79328,-1.26838 0.78261,-2.06137c-0.00483,-0.35905 -0.07255,-0.70255 -0.19253,-1.0201c0.01201,-0.02568 0.02405,-0.05143 0.03613,-0.0772c0.97401,-0.67983 1.2573,-1.8815 1.2573,-1.8815l0.31569,-1.34848c0.8723,-1.71157 1.75886,-3.29924 2.47174,-4.25288c0.70797,-0.28941 1.27955,-0.84125 1.59557,-1.53311c0.08903,-0.04217 0.14375,-0.08437 0.14375,-0.08437l0.65297,-0.50359c0.55912,-0.43848 0.91421,-0.78619 1.27302,-1.06807c3.03718,-1.28623 6.13164,-1.81762 9.30874,-2.81158l0.82115,-0.28459c0,0 0.53972,-0.18801 1.06595,-0.63548c2.53525,-0.25173 5.01887,-0.27687 7.57089,-0.3112l2.70674,-0.03641c0,0 0.66293,-0.00892 1.3613,-0.33002c0.37305,0.04005 0.75571,0.0727 1.13829,0.09573c-0.02651,0.03641 -0.0444,0.08622 -0.04348,0.15431c0.00336,0.24997 0.25334,0.24661 0.25334,0.24661c1.16656,-0.01569 2.7705,-0.03727 3.93706,-0.05296c0,0 0.24997,-0.00336 0.24661,-0.25334c-0.00026,-0.01973 -0.00207,-0.03788 -0.00516,-0.05458c0.42613,0.09584 0.74008,0.09162 0.74008,0.09162c2.71292,-0.05293 4.44242,0.6152 7.07424,1.08079c1.54098,0.2726 2.6795,0.34479 3.81822,0.56471c0.0936,0.35497 0.47172,0.50035 0.47172,0.50035c1.13471,0.43628 2.15881,0.98509 3.25578,1.46215c0.50719,1.58921 2.34003,1.93021 2.34003,1.93021c0.50325,0.05336 0.99142,0.22438 1.44933,0.47043c-0.16369,0.37808 0.11737,0.74251 0.11737,0.74251c0.51767,0.65155 1.1087,0.9433 1.56443,1.53645c-0.14252,0.34012 0.07169,0.68649 0.07169,0.68649c1.00068,1.60849 1.89433,3.26383 3.05378,4.77464l0.45103,0.73107c-0.08658,0.28702 -0.13126,0.592 -0.12701,0.90771z" data-paper-data="{&quot;index&quot;:null}" fill="#ff8080" stroke-width="0"/><path d="M243.63722,147.25692c0.05292,0.02533 0.1058,0.04884 0.15838,0.07063c-0.15798,0.00213 -0.31595,0.00425 -0.47393,0.00638c0.10987,-0.02316 0.21523,-0.04878 0.31554,-0.077z" data-paper-data="{&quot;index&quot;:null}" fill="#ffffff" stroke-width="0"/><path d="M205.47448,171.93239c0.10738,-0.05667 0.2109,-0.11966 0.31004,-0.18846c-0.01646,0.23462 -0.03884,0.4671 -0.06573,0.69804c-0.06561,-0.17849 -0.14767,-0.34897 -0.24433,-0.50958z" data-paper-data="{&quot;index&quot;:null}" fill="#ffffff" stroke-width="0"/><path d="" data-paper-data="{&quot;index&quot;:null}" fill="#ffffff" stroke-width="0"/><path d="" data-paper-data="{&quot;index&quot;:null}" fill="#ffffff" stroke-width="0"/><path d="M208.19406,187.25286c0.00973,-0.03703 0.01876,-0.07433 0.0271,-0.11191l0.10812,0.06811c-0.04547,0.01391 -0.09055,0.02852 -0.13521,0.04381z" data-paper-data="{&quot;index&quot;:null}" fill="#ffffff" stroke-width="0"/><path d="" data-paper-data="{&quot;index&quot;:null}" fill="#ffffff" stroke-width="0"/><path d="" data-paper-data="{&quot;index&quot;:null}" fill="#ffffff" stroke-width="0"/><path d="" data-paper-data="{&quot;index&quot;:null}" fill="#ffffff" stroke-width="0"/><path d="" data-paper-data="{&quot;index&quot;:null}" fill="#000000" stroke-width="0.5"/><path d="M268.05124,190.87621c-0.71464,-0.22757 -0.48706,-0.94222 -0.48706,-0.94222l0.43884,-1.37181c1.84699,-3.8395 2.03797,-7.31179 1.9805,-11.58412c-0.05784,-4.29996 -0.67838,-8.90737 -2.30909,-12.84247c-0.46443,-1.12073 -0.98926,-2.84699 -1.72102,-3.77349c-0.94684,-1.19881 -2.75678,-2.98643 -2.77715,-4.50103c-4.67863,-4.06337 -11.66994,-6.83764 -17.82269,-6.75487c0,0 -0.74993,0.01009 -0.76002,-0.73984c-0.01009,-0.74993 0.73984,-0.76002 0.73984,-0.76002c0.08757,-0.00118 0.17543,-0.0018 0.26355,-0.00188c2.45239,0.02649 4.13052,0.64447 6.60865,1.08287c0.51811,0.09166 0.99072,0.16066 1.43314,0.22023c2.21202,0.69109 4.37679,1.64013 6.33471,2.80599c0.68146,1.16394 2.1179,1.43118 2.1179,1.43118c0.01166,0.00124 0.02331,0.00254 0.03495,0.0039c0.60681,0.45319 1.18232,0.92985 1.72015,1.42836c0.13993,0.15119 0.2832,0.28295 0.42604,0.40732c0.09528,0.094 0.18921,0.18872 0.28176,0.28415c0.01685,1.25199 1.22096,2.53494 2.13844,3.62369c0.38775,0.63469 0.78648,1.26247 1.21905,1.87163c0.28556,0.60172 0.53963,1.25552 0.77722,1.86588c-0.01283,0.11953 -0.01863,0.24113 -0.01697,0.36436c0.01127,0.83761 0.36475,1.59043 0.92565,2.12719c0.04013,0.36063 0.08545,0.71317 0.14439,1.05204c0.43665,2.50995 1.05119,4.94279 1.5788,7.39365c0.09575,1.14014 0.14758,2.27575 0.16258,3.39096c0.00023,0.01736 0.00047,0.03471 0.00069,0.05204c-0.01449,0.21096 -0.02001,0.42195 -0.01746,0.63284c-0.13579,1.26311 -0.13172,2.5651 -0.09762,3.94179c-0.04166,0.50752 -0.09587,1.00959 -0.16548,1.508c-0.17436,0.35603 -0.21891,0.815 -0.21636,1.28286c-0.14772,0.74151 -0.33574,1.47822 -0.57371,2.21622c-0.19403,0.32672 -0.32771,0.69323 -0.38592,1.08394c-0.17245,0.44181 -0.36434,0.88511 -0.57772,1.33121c-0.10155,0.11444 -0.23841,0.32186 -0.20258,0.58153l-0.25379,0.80085c0,0 -0.22757,0.71464 -0.94221,0.48706z" data-paper-data="{&quot;index&quot;:null}" fill="#000000" stroke-width="0.5"/><path d="M252.81967,182.34589c0,0 -0.29887,0.00402 -0.52181,-0.1817c-0.05058,0.09186 -0.10222,0.18313 -0.15496,0.27376c-0.92766,1.59432 -0.65738,2.82227 -2.44466,3.81892l-0.77292,0.08958c0,0 -0.74993,0.01009 -0.76002,-0.73984c-0.01009,-0.74993 0.73984,-0.76002 0.73984,-0.76002l0.1043,0.07778c1.35857,-0.61551 1.15115,-2.06187 1.847,-3.25779c1.47543,-2.53574 2.005,-5.68004 1.96243,-8.84447c0,0 -0.01009,-0.74993 0.73984,-0.76002c0.74993,-0.01009 0.76002,0.73984 0.76002,0.73984c0.03775,2.8063 -0.35052,5.58957 -1.38316,8.04225l0.74114,-0.00997c2.63609,-0.03546 4.9686,0.12621 7.37343,0.66608c0.86389,-2.9464 1.0198,-5.8033 0.97356,-9.2407c0,0 -0.01009,-0.74993 0.73984,-0.76002c0.74993,-0.01009 0.76002,0.73984 0.76002,0.73984c0.04783,3.55574 -0.13197,6.56072 -1.02137,9.63091c0.21235,0.06054 0.4258,0.1242 0.64062,0.19109c0,0 0.71464,0.22757 0.48706,0.94221c-0.22757,0.71464 -0.94222,0.48706 -0.94222,0.48706c-0.2171,-0.07096 -0.43248,-0.13791 -0.64645,-0.20104c-0.29252,0.81201 -0.63862,1.63494 -1.04694,2.47981l-0.4268,0.88311c0,0 -0.32636,0.67527 -1.00163,0.34891c-0.67527,-0.32636 -0.34891,-1.00163 -0.34891,-1.00163l0.42681,-0.88311c0.36363,-0.75238 0.6745,-1.48407 0.93966,-2.20439c-2.24323,-0.49961 -4.4084,-0.61161 -6.8865,-0.57827l-0.87721,0.0118z" data-paper-data="{&quot;index&quot;:null}" fill="#000000" stroke-width="0.5"/><path d="M235.23983,186.74952c-0.53742,-0.52314 -0.01427,-1.06056 -0.01427,-1.06056l0.29485,-0.24771c2.62146,-5.42412 5.5005,-9.16021 5.41481,-15.53009c0,0 -0.01009,-0.74993 0.73984,-0.76002c0.74993,-0.01009 0.76002,0.73984 0.76002,0.73984c0.08905,6.62003 -2.8431,10.57282 -5.56414,16.20298l-0.57057,0.6413c0,0 -0.52314,0.53742 -1.06056,0.01427z" data-paper-data="{&quot;index&quot;:null}" fill="#000000" stroke-width="0.5"/><path d="M226.47381,180.50686c-0.24795,0.00334 -0.49826,0.00671 -0.75063,0.0101c-0.15052,0.96524 -0.22873,1.90003 -0.21675,2.76234l0.0059,0.43861c0,0 0.01009,0.74993 -0.73984,0.76002c-0.74993,0.01009 -0.76002,-0.73984 -0.76002,-0.73984l-0.0059,-0.43861c-0.01126,-0.86317 0.06186,-1.7966 0.20374,-2.76216c-2.48462,0.03342 -5.09256,0.0685 -7.51337,0.10107c0.00368,0.33044 0.00919,0.66489 0.01376,1.00449l0.0177,1.31582c0,0 0.01009,0.74993 -0.73984,0.76002c-0.74993,0.01009 -0.76002,-0.73984 -0.76002,-0.73984l-0.0177,-1.31582c-0.03912,-2.90806 -0.59099,-8.26959 2.03604,-9.91066c0,0 0.66625,-0.34441 1.01065,0.32184c0.34441,0.66625 -0.32184,1.01065 -0.32184,1.01065c-0.9934,0.29472 -0.64454,2.01423 -0.88083,3.02278c-0.23737,1.0131 -0.32523,2.01075 -0.352,3.03051c2.59248,-0.03487 5.18496,-0.06975 7.77744,-0.10462c0.60616,-2.87787 1.72724,-5.8622 2.97748,-8.01093c0,0 0.37719,-0.64825 1.02544,-0.27107c0.64825,0.37719 0.27107,1.02544 0.27107,1.02544c-1.13601,1.9524 -2.16191,4.62521 -2.74478,7.23597c0.14804,-0.00199 0.29607,-0.00398 0.44411,-0.00597c0,0 0.74993,-0.01009 0.76002,0.73984c0.01009,0.74993 -0.73984,0.76002 -0.73984,0.76002z" data-paper-data="{&quot;index&quot;:null}" fill="#000000" stroke-width="0.5"/><path d="M208.50229,192.54815c0.50395,1.88283 1.58463,1.84301 3.01384,2.4691c0.78904,-1.87249 2.11721,-3.50992 3.00424,-5.34529c0,0 0.32636,-0.67527 1.00163,-0.34891c0.67527,0.32636 0.34891,1.00163 0.34891,1.00163c-1.41862,2.93533 -4.05925,5.65765 -3.32676,9.18807c0.29426,1.41827 1.74313,2.16473 2.55376,3.20889c0.87603,1.12839 1.46433,2.15662 2.83542,2.80034c1.54567,0.76386 2.71179,1.89878 4.37277,2.5512c1.63192,0.64099 3.29892,0.53676 4.89107,1.27235l0.10216,-0.08056c0,0 0.74993,-0.01009 0.76002,0.73984c0.00071,0.05304 -0.00238,0.10238 -0.00874,0.14828c1.12425,0.01303 1.91267,0.58107 2.95373,0.83684c2.28165,0.56055 6.74397,0.18636 8.91227,-0.56896c5.53455,-0.11179 10.86732,-0.53766 16.08143,-2.15566c1.8336,-0.56899 3.07366,-2.02491 4.69245,-2.87984c0.49318,-0.22343 0.72569,-0.80416 1.10511,-1.19041c0.92192,-0.9385 1.8159,-1.10719 2.45554,-2.46431c1.80927,-3.83871 0.24927,-8.41072 0.19567,-12.39497c0,0 -0.01009,-0.74993 0.73984,-0.76002c0.74993,-0.01009 0.76002,0.73984 0.76002,0.73984c0.01284,0.95484 0.10366,1.93639 0.21374,2.93088c1.21351,-0.91083 3.21012,-1.75331 4.95971,-1.78281c0.52337,0.41933 1.18979,0.66657 1.91259,0.65739c0.26368,0.22379 0.56641,0.40274 0.89629,0.52526c0.26379,0.38258 0.44277,0.86966 0.54558,1.40712c-0.07865,0.87677 -0.09756,1.79677 -0.05096,2.7203c-0.21347,1.02363 -0.63489,1.92913 -1.21178,2.38764c-0.1989,0.15809 -0.41737,0.29295 -0.65084,0.40806c-0.03954,-0.00589 -0.08008,-0.00868 -0.12135,-0.00812c-0.11833,0.00159 -0.22991,0.03051 -0.32878,0.08066c-0.10019,-0.04748 -0.2125,-0.07338 -0.33084,-0.07179c-0.26367,0.00354 -0.49374,0.14275 -0.62468,0.35031c-0.12847,0.02507 -0.24507,0.08287 -0.34086,0.16428c-0.483,0.07622 -0.98066,0.11623 -1.46921,0.13815c-0.1263,-0.01447 -0.25495,-0.02107 -0.38543,-0.01931c-0.16012,0.00216 -0.31717,0.01682 -0.47019,0.04305c-0.33683,0.00492 -0.66172,0.00607 -0.96586,0.01016l-0.13802,-0.09108c-0.12724,-0.1323 -0.26771,-0.24992 -0.43207,-0.34286c0,0 -0.05805,-0.02903 -0.12979,-0.02792l-0.26389,-0.17414c-0.09481,1.28807 -0.36891,2.5485 -0.95264,3.75074c-0.04663,0.09604 -0.09467,0.18744 -0.14401,0.27467c-0.05023,0.0296 -0.10046,0.05921 -0.15069,0.08882c-0.48817,0.28772 -0.78724,0.74277 -1.00877,1.27043c-0.46187,0.3934 -0.95462,0.73885 -1.43345,1.23583c-0.17122,0.17771 -0.33118,0.3714 -0.49333,0.56264c-0.21824,0.15302 -0.43809,0.3153 -0.65784,0.49423l-0.62763,0.42388c0,0 -0.19308,0.1325 -0.3743,0.36908c-1.40291,0.87075 -2.59344,2.07162 -4.26928,2.60501c-0.16205,0.05158 -0.32441,0.10206 -0.48705,0.15144c-0.2464,-0.04734 -0.47077,0.04593 -0.47077,0.04593c-0.26623,0.11187 -0.53735,0.21848 -0.81283,0.32006c-3.36967,0.89996 -6.85179,1.36338 -10.37201,1.56233c-0.51743,0.01082 -1.04441,0.03217 -1.54509,0.0708c-0.85992,0.03053 -1.72145,0.04686 -2.58353,0.05148c-0.54503,0.18986 -1.21341,0.35215 -1.94971,0.48241c-0.3138,0.02306 -0.62832,0.04768 -0.94365,0.07413c-1.31882,0.11063 -2.6252,0.23009 -3.93258,0.28477c-0.06176,-0.00149 -0.12324,-0.00324 -0.18441,-0.00526c-1.22765,-0.11636 -2.44497,-0.38002 -3.64659,-0.84202c0,0 -0.25999,-0.09996 -0.524,-0.0196c-0.39521,-0.13777 -0.80921,-0.24341 -1.31073,-0.25349c-0.43058,-0.2011 -0.85289,-0.39602 -1.2769,-0.5772c-0.1259,-0.09929 -0.29063,-0.27891 -0.29577,-0.54151c-0.02787,-0.01105 -0.05582,-0.02187 -0.08383,-0.03244c-0.04284,-0.17768 -0.24194,-0.17768 -0.24194,-0.17768c-0.10454,0 -0.20872,-0.00045 -0.31256,-0.00133c-0.64123,-0.17628 -1.309,-0.26751 -1.97707,-0.38356c-1.11565,-0.81628 -2.17203,-1.70221 -3.60076,-2.37304c-1.91044,-0.897 -3.48648,-1.42976 -4.86347,-2.19056c-2.55871,-2.22243 -4.69204,-5.80783 -3.98974,-8.87973c0.00221,-0.00968 0.00444,-0.01935 0.00669,-0.02901l-0.05127,-0.00455c-0.5359,-0.27561 -1.05123,-0.48827 -1.52677,-0.71621c-0.23565,-0.17827 -0.49834,-0.3225 -0.78067,-0.42546c-0.5288,-0.33954 -0.97811,-0.77352 -1.3104,-1.45456c-0.17004,-0.61009 -0.33199,-1.26362 -0.50892,-1.86351c-0.28656,-2.63648 1.22996,-4.7054 3.69922,-4.35266c-0.11653,-0.15706 -0.23759,-0.31611 -0.36198,-0.47713c-0.01639,-0.04009 -0.04157,-0.06892 -0.06945,-0.08967c-0.68023,-0.87604 -1.45204,-1.80975 -2.12769,-2.79871c-0.07782,-0.11763 -0.15652,-0.23523 -0.23522,-0.35296c-0.50537,-0.77868 -0.93927,-1.59056 -1.21359,-2.43451c0.00315,-1.20361 -0.1375,-2.49605 -0.38663,-3.60613c0.03798,-0.84878 0.21097,-1.71837 0.19882,-2.62178c0,0 -0.00191,-0.1422 -0.1101,-0.21066c0.0359,-0.70754 0.06397,-1.38948 0.05555,-2.01565c0.00728,-1.28493 0.66432,-1.96413 0.84398,-3.2023c0.12017,-0.82818 0.27134,-1.67733 0.45461,-2.53635c0.06606,-0.19668 0.11226,-0.40237 0.13627,-0.61466c0.14434,-0.62721 0.30577,-1.25826 0.48472,-1.88886c0.08801,-0.20782 0.15323,-0.42752 0.19258,-0.65593c1.39169,-4.58499 3.72,-9.06906 7.15015,-11.81095c1.14356,-0.5941 2.33934,-1.13155 3.57222,-1.61146c2.03004,-0.60204 4.08873,-1.0563 6.18334,-1.71159l0.82115,-0.28459c0,0 0.07983,-0.02782 0.20803,-0.0875c2.67249,-0.5295 5.38123,-0.81567 8.00049,-0.85091c0,0 0.74993,-0.01009 0.76002,0.73984c0.01009,0.74993 -0.73984,0.76002 -0.73984,0.76002c-6.07538,0.08173 -12.61999,1.54533 -17.99667,4.3095c-4.5772,3.42152 -6.84538,10.83681 -7.74333,16.46377c-0.18639,1.16798 -0.87555,1.82428 -0.82785,2.96179c0.03079,2.28901 -0.50341,5.52888 0.08383,7.72288c0.43658,1.63113 1.86259,3.15274 2.63358,4.62381c0.53966,1.0297 1.54509,2.93285 2.3406,3.14575l0.42948,1.10379c0,0 0.01009,0.74993 -0.73984,0.76002c-0.74993,0.01009 -0.76002,-0.73984 -0.76002,-0.73984l0.41768,0.22657c-0.15948,-0.09376 -0.29495,-0.21561 -0.41544,-0.35452c-0.24877,0.03351 -0.46768,-0.07228 -0.46768,-0.07228c-2.47532,-1.27301 -3.45039,0.86435 -2.84045,3.14317zM266.66451,193.78447c0,0 -0.1206,0.12389 -0.30547,0.19479c0.1312,1.16953 0.24254,2.34584 0.24143,3.50722c0.50046,-0.4281 0.99189,0.05029 0.99189,0.05029l-0.08873,0.22019c1.28615,-0.01731 4.837,0.16273 5.43026,-1.36477c1.95782,-5.04092 -3.86369,-5.12214 -6.26938,-2.60773z" data-paper-data="{&quot;index&quot;:null}" fill="#000000" stroke-width="0.5"/><path d="M220.94214,193.23721c-1.10447,0.01485 -2.01186,-0.86845 -2.02672,-1.97292c-0.01485,-1.10447 0.86845,-2.01186 1.97292,-2.02672c1.10447,-0.01485 2.01186,0.86845 2.02672,1.97292c0.01485,1.10447 -0.86845,2.01186 -1.97292,2.02672z" data-paper-data="{&quot;index&quot;:null}" fill="#000000" stroke-width="0.5"/><path d="M255.17113,194.09281c-1.10447,0.01485 -2.01186,-0.86845 -2.02672,-1.97292c-0.01485,-1.10447 0.86845,-2.01186 1.97292,-2.02672c1.10447,-0.01485 2.01186,0.86845 2.02672,1.97292c0.01485,1.10447 -0.86845,2.01186 -1.97292,2.02672z" data-paper-data="{&quot;index&quot;:null}" fill="#000000" stroke-width="0.5"/><path d="M238.96212,195.75422c-0.6903,0.00929 -1.25741,-0.54277 -1.2667,-1.23307c-0.00929,-0.6903 0.54277,-1.25741 1.23307,-1.2667c0.6903,-0.00929 1.25741,0.54277 1.2667,1.23307c0.00929,0.6903 -0.54277,1.25741 -1.23307,1.2667z" data-paper-data="{&quot;index&quot;:null}" fill="#000000" stroke-width="0.5"/><path d="M222.20398,198.67383c1.56169,0.89444 2.66239,2.22031 4.11965,3.28815c1.36093,0.99726 3.05075,1.58395 4.42146,2.57264c0.56339,0.40637 0.79137,1.02342 1.5043,1.1743c1.84096,0.38962 4.33135,-0.07833 6.22248,-0.10377c6.02235,0.00998 12.36466,-3.0757 17.75589,-5.86259c0,0 0.66625,-0.34441 1.01065,0.32184c0.34441,0.66625 -0.32184,1.01065 -0.32184,1.01065c-5.68291,2.93767 -12.0919,5.86877 -18.42452,6.02996c-1.96408,0.02642 -4.66619,0.54407 -6.56762,0.06829c-0.80191,-0.20065 -1.37486,-0.91924 -2.03995,-1.41013c-1.35584,-1.0007 -3.05564,-1.58061 -4.42146,-2.57264c-1.51324,-1.09909 -2.60921,-2.58127 -4.32932,-3.38885l-0.42948,-1.10379c0,0 -0.01009,-0.74993 0.73984,-0.76002c0.71829,-0.00967 0.75785,0.67791 0.75991,0.73595z" data-paper-data="{&quot;index&quot;:null}" fill="#000000" stroke-width="0.5"/><path d="M232.30418,202.01385c0,0 -2.7814,-0.88574 -2.23282,-3.61433c-0.5491,-0.55392 -0.80072,-1.15924 -0.80072,-1.15924l-0.81577,-2.04007c-0.76387,-2.98473 -0.82457,-5.54809 -0.86578,-8.61136c0,0 -0.0164,-1.21907 0.71754,-2.17394c-1.48105,-1.64377 -0.66344,-3.28016 -0.15818,-3.99962c1.08047,-3.99545 2.88271,-7.78302 3.83762,-11.80517c-4.52669,2.07587 -9.25203,3.65518 -14.26274,3.72259c-1.96441,-0.93872 -4.84199,-0.90958 -5.89325,-2.81614c-1.03906,-1.88442 0.26617,-4.3225 0.80888,-6.40485c0.99545,-3.81953 5.43641,-7.99669 8.76634,-9.66721c6.34811,-3.18464 16.36395,-4.80116 23.40904,-3.58767c3.75064,0.64604 7.91556,2.49276 11.60983,3.54578c0,0 1.55296,0.44321 2.47107,1.7405c3.16666,0.90183 7.79201,3.25451 6.81338,7.55565c-0.22859,1.00466 -0.85183,1.80916 -1.66366,2.49145c0.13932,0.4922 0.19769,1.06834 0.13941,1.74255c-0.36596,4.23422 -4.60018,3.86825 -4.60018,3.86825c-2.60653,-0.2298 -5.25369,0.00614 -7.85275,-0.13592c-0.43266,4.54468 -2.62389,7.82211 -4.18773,12.22636l-0.65545,1.70692c0,0 -0.04322,0.1124 -0.13465,0.28562c0.70986,0.9255 0.72553,2.09021 0.72553,2.09021c-0.00316,0.25925 0.00338,0.50935 0.01868,0.752c0.74848,-0.50393 1.84415,-0.8056 3.25007,-0.02711c2.84323,1.57435 1.26888,4.41757 1.26888,4.41757l-1.27481,2.30227c0,0 -0.4332,0.78235 -1.25551,1.29903c-0.16752,0.94343 -0.79533,2.65138 -3.1452,2.68299c-0.52433,0.00705 -0.96519,-0.07162 -1.33588,-0.20856c0.15261,0.31644 0.26787,0.69241 0.32979,1.1389c0.44646,3.2192 -2.77273,3.66565 -2.77273,3.66565c-3.60051,0.4912 -5.92449,0.47748 -9.38863,-0.70845l-0.86961,-0.2746zM241.66951,196.55858c0,0 0.88428,-0.12264 1.7902,0.2241c-0.2408,-0.47794 -0.34092,-0.95402 -0.38249,-1.25836c-1.14358,-2.92967 -2.00049,-5.20746 -2.09749,-8.46265c0,0 -0.00984,-0.73189 0.32714,-1.50567c-1.22308,-1.37217 -0.48562,-3.29024 -0.48562,-3.29024l0.60619,-1.57451c1.43619,-3.94988 3.8394,-7.00915 3.88304,-11.24593c-1.62345,-0.39893 -3.24631,-0.72494 -4.91708,-0.65015l-1.76626,-0.38899c-1.00395,4.9314 -3.24526,9.39974 -4.36014,14.31095l-0.9907,1.58652c0.79529,0.94003 0.81221,2.19781 0.81221,2.19781c0.03411,2.53615 -0.02423,4.59047 0.65052,7.03764l0.53369,1.20623c0,0 0.27354,0.65804 0.25631,1.48593c2.37133,0.88947 3.5696,0.69062 6.14049,0.3273z" data-paper-data="{&quot;index&quot;:null}" fill="#ff8080" stroke-width="0.5"/></g></g></svg>